<?xml version="1.0" encoding="UTF-8" standalone="no"?>
<svg
   xmlns:dc="http://purl.org/dc/elements/1.1/"
   xmlns:cc="http://creativecommons.org/ns#"
   xmlns:rdf="http://www.w3.org/1999/02/22-rdf-syntax-ns#"
   xmlns:svg="http://www.w3.org/2000/svg"
   xmlns="http://www.w3.org/2000/svg"
   xmlns:sodipodi="http://sodipodi.sourceforge.net/DTD/sodipodi-0.dtd"
   xmlns:inkscape="http://www.inkscape.org/namespaces/inkscape"
   viewBox="0 0 512 512"
   id="svg3392"
   version="1.1"
   inkscape:version="0.91 r13725"
   sodipodi:docname="WebBridgeLogo.svg"
   inkscape:export-filename="/home/mariano/src/docs/webbridge/site/site/imgs/WebBridgeStgLogo.png"
   inkscape:export-xdpi="160"
   inkscape:export-ydpi="160">
  <metadata
     id="metadata3408">
    <rdf:RDF>
      <cc:Work
         rdf:about="">
        <dc:format>image/svg+xml</dc:format>
        <dc:type
           rdf:resource="http://purl.org/dc/dcmitype/StillImage" />
        <dc:title>HTML5 Logo Badge</dc:title>
      </cc:Work>
    </rdf:RDF>
  </metadata>
  <defs
     id="defs3406">
    <inkscape:perspective
       id="perspective2572"
       inkscape:persp3d-origin="300 : 400 : 1"
       inkscape:vp_z="700 : 600 : 1"
       inkscape:vp_y="0 : 1000 : 0"
       inkscape:vp_x="-50 : 600 : 1"
       sodipodi:type="inkscape:persp3d" />
  </defs>
  <sodipodi:namedview
     pagecolor="#ffffff"
     bordercolor="#666666"
     borderopacity="1"
     objecttolerance="10"
     gridtolerance="10"
     guidetolerance="10"
     inkscape:pageopacity="0"
     inkscape:pageshadow="2"
     inkscape:window-width="1366"
     inkscape:window-height="749"
     id="namedview3404"
     showgrid="false"
     inkscape:zoom="1.1484375"
     inkscape:cx="256"
     inkscape:cy="254.2585"
     inkscape:window-x="0"
     inkscape:window-y="0"
     inkscape:window-maximized="1"
     inkscape:current-layer="svg3392" />
  <title
     id="title3394">HTML5 Logo Badge</title>
  <g
     id="g3521"
     transform="matrix(0.81851366,0,0,0.81851366,48.056837,51.12509)"
     inkscape:export-xdpi="160"
     inkscape:export-ydpi="160">
    <path
       id="path3396"
       d="M 71,460 30,0 481,0 440,460 255,512"
       inkscape:connector-curvature="0"
       style="fill:#e34f26" />
    <path
       id="path3398"
       d="M 256,472 405,431 440,37 256,37"
       inkscape:connector-curvature="0"
       style="fill:#ef652a" />
  </g>
  <g
     id="g4164">
    <path
       id="path2549"
       d="m 289.18667,401.8098 -1.75682,-0.42336 -1.69332,-0.44452 -1.65098,-0.48687 -1.62982,-0.48685 -1.56632,-0.5292 -1.54515,-0.55037 -1.52399,-0.57153 0.0847,-0.31752 0.12699,-0.33868 0.127,-0.33869 0.16934,-0.33868 0.21166,-0.33869 0.21166,-0.35986 0.254,-0.33868 0.27517,-0.35985 0.27516,-0.35986 0.29633,-0.35985 0.33866,-0.35986 0.33867,-0.35985 0.69849,-0.7197 0.74083,-0.71972 0.762,-0.69853 0.78316,-0.67737 0.76199,-0.65621 0.76199,-0.61387 1.37583,-1.14306 1.14299,-0.93139 0.55032,-1.48175 0.48683,-1.27007 0.40217,-1.03723 0.381,-0.86788 0.16933,-0.35985 0.16933,-0.33869 0.16933,-0.27518 0.1905,-0.27518 0.16933,-0.21168 0.1905,-0.21168 0.21166,-0.16934 0.21166,-0.14818 0.23283,-0.12701 0.254,-0.10584 0.29634,-0.10583 0.29632,-0.0847 0.33867,-0.0635 0.35984,-0.0635 0.40216,-0.0635 0.42333,-0.0635 0.99482,-0.10584 1.18533,-0.14817 1.37581,-0.16935 1.60866,-0.25401 0.95249,-0.63504 0.95249,-0.6562 0.9525,-0.65621 0.97366,-0.63503 0.95249,-0.65621 0.95249,-0.6562 0.97366,-0.65621 0.97365,-0.63503 1.14299,-0.44453 1.143,-0.44452 1.10065,-0.48686 1.10066,-0.50803 1.10066,-0.5292 1.10065,-0.55036 1.07949,-0.55037 1.07949,-0.57153 0.48683,-0.42335 0.42333,-0.44453 0.4445,-0.46569 0.42333,-0.4657 0.46567,-0.48686 0.48682,-0.50803 0.52917,-0.55036 0.59266,-0.57154 1.39699,-1.07956 1.52398,-1.10072 1.56632,-1.16424 1.56632,-1.1854 0.78316,-0.5927 0.78316,-0.61387 0.76199,-0.63503 0.74083,-0.63504 0.6985,-0.63504 0.69849,-0.6562 0.63499,-0.67737 0.59267,-0.67737 0.40216,-0.31752 0.35982,-0.31752 0.33868,-0.31752 0.27516,-0.33869 0.254,-0.35985 0.21166,-0.35985 0.19049,-0.35985 0.14817,-0.38103 0.127,-0.38102 0.10583,-0.38102 0.0635,-0.38102 0.0423,-0.40219 0,-0.40219 0,-0.38102 -0.0423,-0.40219 -0.0423,-0.40219 -0.0847,-0.40219 -0.10584,-0.38102 -0.10583,-0.40219 -0.127,-0.38102 -0.16933,-0.40219 -0.14817,-0.38102 -0.1905,-0.35986 -0.19049,-0.38102 -0.1905,-0.35986 -0.23283,-0.33868 -0.21167,-0.35985 -0.23283,-0.31752 -0.23283,-0.33869 -0.254,-0.29635 -0.25399,-0.29635 -0.25401,-0.29635 -0.69849,-0.48686 -0.69849,-0.44453 -0.6985,-0.44452 -0.69849,-0.44453 -1.39698,-0.80437 -1.35466,-0.78322 -1.37582,-0.74087 -1.35465,-0.74088 -1.37583,-0.69853 -1.37582,-0.71971 -1.37583,-1.27008 -1.37582,-1.27007 -1.35465,-1.27007 -1.35466,-1.27007 -1.31232,-1.29124 -1.31232,-1.27007 -1.29116,-1.29125 -1.26999,-1.3124 -1.22765,-1.29124 -1.22766,-1.31241 -1.18532,-1.33357 -1.16416,-1.31242 -1.14299,-1.35474 -1.10065,-1.35474 -1.0795,-1.35474 -1.03715,-1.37591 -0.42333,-1.14307 -0.40217,-1.1219 -0.3175,-1.10073 -0.27516,-1.07956 -0.21166,-1.05839 -0.16934,-1.03723 -0.127,-1.03722 -0.0635,-0.99489 -0.0423,-0.99489 0.0212,-0.97373 0.0847,-0.97372 0.10584,-0.93138 0.14816,-0.95255 0.1905,-0.91022 0.21166,-0.91022 0.27517,-0.91022 0.29633,-0.88905 0.33866,-0.88905 0.35983,-0.86788 0.40216,-0.86789 0.42333,-0.86788 0.4445,-0.86788 0.48683,-0.84672 0.508,-0.84672 0.50799,-0.84671 0.55033,-0.84671 0.5715,-0.84672 0.59266,-0.84671 1.22765,-1.69343 1.29116,-1.69343 0,-0.31752 0,-0.31752 0,-0.31752 0,-0.27518 -0.59266,-0.29635 -0.35983,-0.14817 -0.16933,-0.0423 -0.16934,0 -0.1905,-0.0212 -0.25399,0 -1.03716,1.24891 -0.97366,1.20657 -0.91016,1.1854 -0.84666,1.14306 -0.40216,0.5927 -0.381,0.57154 -0.35983,0.57153 -0.35983,0.57153 -0.35983,0.57153 -0.3175,0.57153 -0.31749,0.5927 -0.3175,0.57154 -0.29633,0.61386 -0.27516,0.5927 -0.25401,0.61387 -0.27516,0.61387 -0.23283,0.63504 -0.23283,0.63504 -0.23283,0.6562 -0.21166,0.67737 -0.1905,0.67737 -0.1905,0.69854 -0.16933,0.71971 -0.16933,0.74088 -0.16933,0.76204 -0.14817,0.78321 -0.14817,0.80438 -0.12699,0.82554 -1.33349,-0.21167 -1.31232,-0.21168 -1.3335,-0.21168 -1.31231,-0.21168 -1.3335,-0.21168 -1.31231,-0.21168 -1.31233,-0.21168 -1.33349,-0.1905 -1.31232,-0.21168 -1.33349,-0.21169 -1.31232,-0.21167 -1.31232,-0.21168 -1.31232,-0.21168 -1.31233,-0.21168 -1.31232,-0.21167 -1.31232,-0.19052 -4.14863,-0.99489 -4.1698,-1.01606 -2.07432,-0.52919 -2.07431,-0.5292 -2.05315,-0.55036 -2.07432,-0.57153 -2.05315,-0.59271 -2.07431,-0.61386 -2.03199,-0.61387 -2.05315,-0.63504 -2.03198,-0.67737 -2.01081,-0.67737 -2.01082,-0.69854 -2.01081,-0.74088 -1.96849,-0.74087 -1.98965,-0.78322 -1.94732,-0.82554 -1.94731,-0.82555 -1.92615,-0.86788 -1.90499,-0.91022 -1.88381,-0.91022 -1.86265,-0.97372 -1.84149,-0.99489 -1.84148,-1.01606 -1.79915,-1.07956 -1.77799,-1.10073 -1.75682,-1.14306 -1.71448,-1.1854 -1.71448,-1.20657 -1.67216,-1.27007 -0.0211,-0.27519 -0.0212,-0.27518 0,-0.25401 0.0212,-0.27519 0.0211,-0.25401 0.0211,-0.25401 0.0635,-0.25402 0.0423,-0.25401 0.14816,-0.50803 0.1905,-0.48686 0.1905,-0.4657 0.23283,-0.48686 0.52916,-0.93139 0.5715,-0.93138 0.5715,-0.93138 0.52916,-0.95256 0.29633,-0.84671 0.21166,-0.67737 0.1905,-0.55037 0.14817,-0.50803 0.12699,-0.50803 0.14817,-0.5927 0.16933,-0.71971 0.1905,-0.93138 -0.0423,-0.0847 -0.0635,-0.0847 -0.0635,-0.0635 -0.0847,-0.0635 -0.1905,-0.0635 -0.16933,-0.0423 -0.3175,0.0211 -0.16933,0 -0.93133,1.94745 -0.86782,1.8416 -0.4445,0.88905 -0.42333,0.84672 -0.46566,0.86788 -0.46566,0.82554 -0.48683,0.82555 -0.508,0.80438 -0.55033,0.80438 -0.57149,0.80438 -0.61383,0.78321 -0.67733,0.80438 -0.69849,0.78321 -0.78316,0.80438 -1.65099,0.0423 -1.67215,-0.0211 -1.65099,-0.0847 -1.65099,-0.14817 -1.62982,-0.21168 -1.62981,-0.25402 -1.62982,-0.29635 -1.62982,-0.33868 -1.62982,-0.35986 -1.60865,-0.42336 -1.62983,-0.44452 -1.60865,-0.4657 -1.60865,-0.48685 -1.60865,-0.50803 -1.60865,-0.50803 -1.58749,-0.5292 -3.19614,-1.07956 -3.19614,-1.0584 -1.58749,-0.52919 -1.60865,-0.50803 -1.58749,-0.48686 -1.58748,-0.46569 -1.60866,-0.42336 -1.58748,-0.42336 -1.58749,-0.35985 -1.58749,-0.33869 -1.60865,-0.29635 -1.58749,-0.23284 -1.60865,-0.19051 -1.60866,-0.14818 -0.27516,0.27518 -0.27516,0.27518 0.10583,1.62993 0.10583,1.43942 0.0847,1.2489 0.0847,1.1219 0.0635,0.97372 0.0635,0.88905 0.0635,0.80438 0.0635,0.74087 0.0635,0.69854 0.0635,0.69855 0.0635,0.69853 0.0635,0.74088 0.0847,0.78321 0.10583,0.84671 0.10583,0.97372 0.127,1.07957 0.61383,-0.61387 0.61383,-0.6562 0.63499,-0.65621 0.635,-0.63504 0.33866,-0.27518 0.35983,-0.27518 0.35983,-0.23284 0.38099,-0.21169 0.19051,-0.10583 0.19049,-0.0847 0.21167,-0.0635 0.21166,-0.0847 0.21167,-0.0424 0.21166,-0.0423 0.23283,-0.0423 0.23284,0 0,0.80438 0,0.80438 0.0211,0.82555 0.0212,0.80437 0,0.82555 0.0212,0.80439 0.0211,0.80437 0.0423,0.82555 0.27516,-0.0847 0.254,-0.0635 0.21167,-0.0423 0.23283,-0.0211 0.63499,-0.0211 1.03716,0.0423 0.0423,0.44453 0.0211,0.42335 -0.0211,0.4657 -0.0635,0.44452 -0.0635,0.4657 -0.10583,0.48686 -0.10584,0.46569 -0.127,0.46569 -0.29632,0.95256 -0.3175,0.95255 -0.33867,0.95255 -0.29632,0.91022 0.12699,0 0.10583,-0.0211 0.10583,-0.0211 0.10584,-0.0423 0.21166,-0.10584 0.21167,-0.12701 0.42333,-0.31752 0.46566,-0.35985 0.23283,-0.16934 0.254,-0.16934 0.27517,-0.14818 0.29632,-0.14817 0.31751,-0.0847 0.35982,-0.0847 0.1905,0 0.1905,-0.0211 0.1905,0 0.21166,0.0211 0,0.95256 0,0.93139 -0.0212,0.91021 -0.0211,0.93139 -0.0212,0.93138 -0.0635,0.93139 -0.0847,0.95255 -0.0847,0.95256 0.23283,0.33869 0.23283,0.38102 0.23283,0.42335 0.254,0.48686 0.23283,0.50804 0.23283,0.52919 0.21167,0.57153 0.21166,0.5927 0.88899,0.0211 0.889,0 0.88899,0.0211 0.91016,0 0.88899,0.0211 0.91016,0.0212 0.91016,0.0211 0.91016,0.0211 0.14817,0.50803 0.10583,0.55037 0.0847,0.5927 0.0423,0.63503 0.0212,0.65621 -0.0212,0.69854 -0.0423,0.7197 -0.0847,0.74088 -0.10583,0.78321 -0.127,0.78321 -0.14817,0.80438 -0.16933,0.82555 -0.1905,0.82554 -0.21167,0.84672 -0.23282,0.82555 -0.23284,0.86788 -0.52916,1.69343 -0.55033,1.67226 -0.57149,1.62993 -0.59267,1.54525 -0.57149,1.48175 -0.5715,1.35474 -0.52916,1.22774 -0.50799,1.07956 -0.508,0.69854 -0.50799,0.69854 -0.508,0.71971 -0.508,0.74088 -0.42333,0 -0.40216,0 -0.40217,0 -0.38099,0 -0.84666,-1.50292 -0.8255,-1.43942 -0.40216,-0.69854 -0.40216,-0.67737 -0.42333,-0.67737 -0.40216,-0.63504 -0.42333,-0.63503 -0.4445,-0.61387 -0.44449,-0.61387 -0.46566,-0.5927 -0.48683,-0.57153 -0.48683,-0.55037 -0.52917,-0.55036 -0.55032,-0.5292 -1.29117,-0.19051 -1.12182,-0.19051 -0.46566,-0.0847 -0.4445,-0.10584 -0.38099,-0.12701 -0.35983,-0.10584 -0.3175,-0.12701 -0.27516,-0.14817 -0.23284,-0.14818 -0.21166,-0.14817 -0.16933,-0.16934 -0.14817,-0.19052 -0.10583,-0.21167 -0.10583,-0.21168 -0.0635,-0.25402 -0.0423,-0.25401 -0.0423,-0.27519 0,-0.29635 0.0211,-0.67736 0.0635,-0.76205 0.0847,-0.88905 0.10583,-0.99489 0.10583,-1.14307 0.0847,-1.27006 -0.40217,-0.95256 -0.38099,-0.86788 -0.35984,-0.78322 -0.38099,-0.7197 -0.381,-0.6562 -0.40216,-0.5927 -0.40217,-0.57154 -0.40216,-0.50803 -0.44449,-0.50803 -0.46566,-0.46569 -0.48683,-0.46569 -0.508,-0.48686 -1.16416,-0.95256 -1.31232,-1.05839 -0.86783,-0.44453 -0.78316,-0.46569 -0.71966,-0.44453 -0.65616,-0.48685 -0.57149,-0.48686 -0.508,-0.48687 -0.4445,-0.50803 -0.40216,-0.50802 -0.33866,-0.5292 -0.27517,-0.5292 -0.23283,-0.55036 -0.16933,-0.57154 -0.14817,-0.57153 -0.0847,-0.57153 -0.0635,-0.5927 -0.0212,-0.61387 0.0212,-0.61387 0.0423,-0.61387 0.0635,-0.63503 0.10583,-0.65621 0.10584,-0.6562 0.14816,-0.67737 0.14817,-0.67737 0.16933,-0.69854 0.35983,-1.41825 0.38099,-1.48175 0.35984,-1.52409 0.35983,-1.56642 -0.0212,-1.01606 -0.0635,-1.01605 -0.0847,-1.01606 -0.10583,-1.01606 -0.14817,-1.01606 -0.16933,-1.01606 -0.16933,-1.01605 -0.21166,-1.01606 -0.21167,-0.99489 -0.23283,-1.01606 -0.254,-0.97372 -0.23283,-0.97372 -0.254,-0.97372 -0.254,-0.93139 -0.25399,-0.93139 -0.254,-0.93138 0.0423,-0.50803 0.0635,-0.48686 0.0423,-0.48686 0.0847,-0.48686 0.0847,-0.44453 0.0847,-0.44452 0.10583,-0.44453 0.10583,-0.42336 0.127,-0.40219 0.127,-0.40219 0.127,-0.40218 0.14817,-0.4022 0.31749,-0.76204 0.33867,-0.74088 0.38099,-0.7197 0.40217,-0.74088 0.42333,-0.71971 0.44449,-0.74087 0.97366,-1.52409 1.03716,-1.65109 0.42333,-0.33868 0.42333,-0.29635 0.44449,-0.25402 0.4445,-0.23285 0.4445,-0.21168 0.46566,-0.16934 0.48683,-0.14818 0.46566,-0.10583 0.48683,-0.10584 0.48683,-0.0635 0.48683,-0.0635 0.50799,-0.0212 0.508,0 0.508,0 0.50799,0.0212 0.52916,0.0423 1.03716,0.12701 1.05833,0.14817 1.05832,0.19051 1.07949,0.23285 1.07949,0.23285 1.0795,0.23285 1.07949,0.21167 1.05832,0.19051 0.52916,0.0847 0.74083,0.10585 0.93132,0.14817 1.05833,0.16934 1.18532,0.16934 1.24883,0.16935 1.33348,0.14817 1.33349,0.14818 0.67733,0.0423 0.67733,0.0423 0.65616,0.0423 0.65616,0.0211 0.61383,0 0.61383,0 0.59266,-0.0211 0.55033,-0.0423 0.52916,-0.0635 0.48683,-0.0847 0.46566,-0.10584 0.40217,-0.12701 0.35982,-0.14818 0.3175,-0.19051 0.254,-0.1905 0.1905,-0.25402 -0.27517,-0.12701 -0.27516,-0.14817 -0.254,-0.12701 -0.23283,-0.14818 -0.14816,-1.05839 -0.14817,-1.05839 -0.14817,-1.0584 -0.14816,-1.05839 -0.127,-1.03723 -0.14817,-1.03722 -0.12699,-1.03723 -0.127,-1.03722 -0.127,-1.03723 -0.10584,-1.03722 -0.0847,-1.01606 -0.0847,-1.03723 -0.0635,-1.01605 -0.0423,-1.01606 -0.0423,-1.03723 0,-1.01606 0.0635,-0.29635 0.0847,-0.27518 0.0847,-0.29635 0.127,-0.29635 0.254,-0.55036 0.27516,-0.55037 0.635,-1.05839 0.63499,-0.99489 0.27517,-0.48686 0.23283,-0.46569 0.10583,-0.23285 0.0847,-0.23285 0.0635,-0.23285 0.0635,-0.21167 0.0211,-0.23285 0.0212,-0.21168 0,-0.21168 -0.0423,-0.21167 -0.0635,-0.21168 -0.0847,-0.19052 -0.10584,-0.21167 -0.127,-0.19051 -0.23283,0 -0.23283,0 -0.23283,0 -0.23283,0 -0.78316,0.80438 -0.67733,0.74087 -0.3175,0.35985 -0.27516,0.33869 -0.254,0.33869 -0.23283,0.33868 -0.21167,0.31752 -0.19049,0.33869 -0.16934,0.31751 -0.16933,0.31752 -0.14816,0.31752 -0.127,0.31752 -0.10583,0.31751 -0.0847,0.33869 -0.0847,0.31752 -0.0847,0.33869 -0.0635,0.35985 -0.0423,0.35985 -0.0635,0.74088 -0.0423,0.80438 -0.0423,1.8416 0.0211,2.1803 0.16933,1.46058 0.1905,1.46058 0.1905,1.48175 0.1905,1.48175 0.1905,1.48175 0.16933,1.48175 0.19049,1.48175 0.19051,1.48175 -0.9525,0.0212 -1.12182,0.0211 -1.22766,0 -1.26999,-0.0211 -0.61383,-0.0212 -0.61383,-0.0423 -0.57149,-0.0423 -0.52916,-0.0635 -0.48683,-0.0847 -0.4445,-0.10584 -0.1905,-0.0635 -0.16933,-0.0635 -0.14817,-0.0635 -0.14816,-0.0847 -0.4445,-1.82044 -0.44449,-1.82043 -0.46567,-1.82044 -0.48682,-1.79927 -0.48683,-1.82044 -0.508,-1.79927 -0.50799,-1.79927 -0.508,-1.7781 -0.52916,-1.7781 -0.55033,-1.7781 -0.52916,-1.75693 -0.55033,-1.75693 -0.55033,-1.73577 -0.55033,-1.73577 -0.5715,-1.7146 -0.55032,-1.71459 -0.55033,-1.01606 -0.42333,-0.78321 -0.33866,-0.5927 -0.27517,-0.48686 -0.254,-0.38102 -0.254,-0.35986 -0.27516,-0.38102 -0.35983,-0.44452 -0.91016,-0.27518 -0.86783,-0.25402 -0.82549,-0.23285 -0.76199,-0.19051 -0.74083,-0.16934 -0.67732,-0.12701 -0.65617,-0.10584 -0.61383,-0.0847 -0.57149,-0.0635 -0.52916,-0.0212 -0.508,0.0212 -0.48683,0.0423 -0.46566,0.0635 -0.42333,0.10584 -0.40216,0.12701 -0.40217,0.16934 -0.35983,0.19051 -0.35983,0.23285 -0.33866,0.25401 -0.33866,0.29635 -0.33867,0.33869 -0.3175,0.35985 -0.29633,0.40219 -0.31749,0.44453 -0.3175,0.46569 -0.3175,0.50803 -0.3175,0.55036 -0.33866,0.57154 -0.67733,1.27007 -0.74082,1.41824 -0.65616,0.38103 -0.6985,0.40218 -0.35983,0.19052 -0.33866,0.19051 -0.33867,0.21167 -0.31749,0.23285 -0.29633,0.23285 -0.27517,0.23285 -0.254,0.27518 -0.21166,0.27518 -0.0847,0.16934 -0.0847,0.14818 -0.0635,0.16934 -0.0635,0.16935 -0.0423,0.16933 -0.0423,0.19052 -0.0212,0.19051 0,0.19051 0.42333,0.12701 0.52917,0.127 0.55033,0.12701 0.59266,0.12701 0.59266,0.127 0.57149,0.14818 0.27517,0.0847 0.27516,0.10584 0.254,0.0847 0.23283,0.10584 0.21167,0.10584 0.19049,0.12701 0.14817,0.127 0.14817,0.14818 0.0847,0.14817 0.0847,0.14818 0.0212,0.16934 0,0.19051 -0.0635,0.19052 -0.10584,0.21167 -0.12699,0.21168 -0.21167,0.23285 -0.23283,0.25402 -0.3175,0.27518 -0.35983,0.27518 -0.42333,0.29635 -0.63499,0.25401 -0.59266,0.25401 -0.59267,0.27519 -0.57149,0.27518 -0.55033,0.31752 -0.52916,0.33868 -0.254,0.19052 -0.254,0.19051 -0.254,0.21167 -0.23283,0.23285 0.99483,0 0.91016,-0.0423 0.42333,-0.0211 0.42333,0 0.42333,0 0.40216,0.0211 0.40216,0.0423 0.40217,0.0635 0.40216,0.10585 0.42333,0.127 0.42333,0.16935 0.44449,0.23284 0.4445,0.27518 0.48683,0.33869 0,0.19051 0,0.21168 -0.0212,0.19051 -0.0423,0.19051 -0.0635,0.16935 -0.0635,0.16934 -0.0847,0.14817 -0.10583,0.16934 -0.10583,0.14818 -0.127,0.12701 -0.127,0.14818 -0.14816,0.127 -0.3175,0.25401 -0.3175,0.23285 -0.71966,0.42336 -0.74083,0.42336 -0.33866,0.21167 -0.33866,0.21168 -0.29633,0.21168 -0.254,0.23285 -0.0423,0.42335 -0.0635,0.38103 -0.0635,0.33868 -0.10583,0.31752 -0.10584,0.27518 -0.127,0.27519 -0.14816,0.23284 -0.14817,0.23285 -0.1905,0.21168 -0.21166,0.19051 -0.21167,0.16934 -0.25399,0.19051 -0.27517,0.16934 -0.29633,0.16935 -0.3175,0.16934 -0.35983,0.16935 -0.42333,0.42335 -0.50799,0.48686 -0.52916,0.50803 -0.55033,0.55037 -0.254,0.27518 -0.23283,0.29635 -0.21167,0.29635 -0.19049,0.29635 -0.14817,0.29635 -0.127,0.31752 -0.0423,0.16934 -0.0423,0.14818 0,0.16934 -0.0212,0.14817 0.59266,0.61387 0.52916,0.5292 0.23283,0.25401 0.21167,0.23285 0.1905,0.25401 0.1905,0.23285 0.16933,0.25402 0.14816,0.29635 0.127,0.29635 0.127,0.31751 0.10583,0.38103 0.0847,0.40218 0.0847,0.44453 0.0635,0.50803 -0.21167,0.44452 -0.21166,0.42336 -0.254,0.40219 -0.254,0.40219 -0.29633,0.38102 -0.29633,0.38102 -0.3175,0.35986 -0.33866,0.35985 -0.35983,0.33868 -0.381,0.31752 -0.381,0.31752 -0.40216,0.31752 -0.40216,0.29635 -0.42333,0.27518 -0.42333,0.27518 -0.4445,0.25402 -0.4445,0.27518 -0.46566,0.23285 -0.44449,0.23285 -0.46567,0.23284 -0.93132,0.42336 -0.93133,0.38102 -0.93132,0.35985 -0.93133,0.31752 -0.88899,0.29635 -0.86783,0.25401 -0.91016,0.0211 -0.84666,-0.0211 -0.38099,-0.0211 -0.381,-0.0212 -0.381,-0.0423 -0.33866,-0.0635 -0.33866,-0.0423 -0.33867,-0.0847 -0.31749,-0.0635 -0.29633,-0.10584 -0.59267,-0.19051 -0.57149,-0.23285 -0.55033,-0.27518 -0.52916,-0.29635 -0.508,-0.33868 -0.52916,-0.35986 -1.10066,-0.80438 -1.18532,-0.88905 0.0212,-0.31752 0.0212,-0.29635 0.0212,-0.29635 0.0423,-0.31751 0.10583,-0.5927 0.14816,-0.61387 0.3175,-1.1854 0.35983,-1.1854 0.14817,-0.57154 0.127,-0.57153 0.10583,-0.55036 0.0423,-0.55037 0.0212,-0.25401 0,-0.27518 -0.0212,-0.25402 -0.0212,-0.25401 -0.0635,-0.23285 -0.0635,-0.25401 -0.0847,-0.23285 -0.10584,-0.23284 0.0423,-0.38103 0.0423,-0.35985 0.0847,-0.35986 0.0635,-0.35985 0.1905,-0.69854 0.21167,-0.67737 0.23283,-0.67737 0.254,-0.6562 0.27516,-0.65621 0.27517,-0.65621 0.27516,-0.6562 0.254,-0.6562 0.25399,-0.63504 0.23284,-0.6562 0.21166,-0.65621 0.16933,-0.67737 0.0635,-0.33868 0.0635,-0.33869 0.0423,-0.33868 0.0423,-0.33869 -0.3175,-1.60876 -0.3175,-1.48175 -0.14816,-0.69854 -0.127,-0.67737 -0.10584,-0.65621 -0.0847,-0.67737 -0.0635,-0.63503 -0.0212,-0.65621 0.0212,-0.6562 0.0423,-0.63504 0.0423,-0.33869 0.0635,-0.33868 0.0635,-0.33868 0.0847,-0.33869 0.0847,-0.33869 0.10583,-0.35985 0.10584,-0.35986 0.14816,-0.35985 0.59266,-0.76204 0.59267,-0.74088 0.61382,-0.74087 0.59267,-0.74088 1.24882,-1.41825 1.24882,-1.39707 1.29116,-1.35475 1.29115,-1.33357 1.31232,-1.31241 1.33349,-1.29124 1.35466,-1.27008 1.35465,-1.2489 1.37583,-1.2489 1.41815,-1.2489 1.39699,-1.24891 1.43932,-1.24891 1.43932,-1.2489 1.46049,-1.2489 1.01599,-1.27007 0.99482,-1.22774 0.9525,-1.1854 0.93132,-1.1219 0.46566,-0.55036 0.46567,-0.5292 0.46566,-0.50803 0.48683,-0.48686 0.46566,-0.4657 0.48683,-0.44452 0.508,-0.44453 0.48682,-0.40218 0.52917,-0.38102 0.52916,-0.38103 0.55033,-0.33869 0.55033,-0.31751 0.59266,-0.27519 0.61383,-0.27518 0.61382,-0.23284 0.65616,-0.21168 0.67733,-0.19051 0.69849,-0.14818 0.74083,-0.12701 0.762,-0.0847 0.78316,-0.0635 0.84665,-0.0212 0.86783,0 0.88899,0.0423 0.93133,0.71971 0.95249,0.7197 0.95249,0.74088 0.9525,0.78321 0.97366,0.80438 0.97365,0.82555 0.97366,0.88905 0.97366,0.95255 0.69849,1.43942 0.67733,1.46058 0.67733,1.43942 0.67733,1.46058 0.69849,1.43941 0.71966,1.43942 0.38099,0.69854 0.40217,0.67737 0.40217,0.69854 0.40216,0.65621 0.44449,0.6562 0.4445,0.6562 0.46566,0.63504 0.48683,0.61386 0.508,0.61387 0.52916,0.57154 0.55033,0.57153 0.59266,0.55037 0.59267,0.52919 0.63499,0.48686 0.67732,0.48686 0.6985,0.4657 0.71966,0.42335 0.76199,0.40219 0.80433,0.38103 0.82549,0.35985 0.0847,-0.0211 0.0847,-0.0423 0.0847,-0.0847 0.10583,-0.12701 0.23284,-0.29635 0.27516,-0.40219 0.27517,-0.48686 0.29632,-0.52919 0.3175,-0.57154 0.29633,-0.61387 0.59267,-1.20656 0.52916,-1.10073 0.38099,-0.86789 0.23283,-0.46569 0.91017,-1.35474 0.93132,-1.29124 0.48683,-0.61387 0.48683,-0.5927 0.50799,-0.55037 0.52916,-0.52919 0.27517,-0.25402 0.27516,-0.23285 0.29633,-0.23284 0.29634,-0.23285 0.29632,-0.21167 0.31751,-0.19052 0.31749,-0.19051 0.33866,-0.16934 0.33867,-0.16934 0.35983,-0.14818 0.35983,-0.12701 0.381,-0.127 0.40216,-0.10584 0.38099,-0.0847 0.42333,-0.0847 0.42333,-0.0635 0.23284,-1.50292 0.23283,-1.39708 0.25399,-1.33357 0.254,-1.24891 0.254,-1.1854 0.29633,-1.14306 0.3175,-1.10073 0.35983,-1.07957 0.40216,-1.05838 0.42333,-1.03723 0.48683,-1.05839 0.52917,-1.07957 0.59266,-1.10073 0.65615,-1.12189 0.71967,-1.1854 0.80432,-1.24891 2.11665,-2.22262 1.88382,-1.96862 1.62982,-1.71459 1.43932,-1.52409 1.22765,-1.31241 1.07949,-1.16423 0.93133,-0.97372 0.78316,-0.86788 0.67733,-0.74088 0.59266,-0.63504 0.52916,-0.57153 0.48683,-0.5292 0.4445,-0.48686 0.42333,-0.46569 0.4445,-0.46569 0.48682,-0.50803 0.27517,-0.78321 0.27516,-0.76205 0.27517,-0.74087 0.27516,-0.76204 1.69332,0 1.67215,-0.0423 0.84666,-0.0423 0.82549,-0.0635 0.84666,-0.0635 0.84667,-0.0635 0.84665,-0.10584 0.84666,-0.10584 0.84666,-0.12701 0.84666,-0.16934 0.86783,-0.16934 0.86782,-0.19052 0.88899,-0.21167 0.889,-0.25402 0.52916,-0.25401 0.59266,-0.31752 0.635,-0.35985 0.67733,-0.40219 0.71965,-0.44453 0.71967,-0.46569 0.69849,-0.50803 0.69849,-0.55036 0.33867,-0.27519 0.33866,-0.27518 0.3175,-0.29635 0.29633,-0.29635 0.29633,-0.29635 0.27517,-0.29635 0.25399,-0.31752 0.23284,-0.29635 0.21166,-0.31752 0.21166,-0.31751 0.14817,-0.31752 0.14816,-0.31752 0.10583,-0.33869 0.0847,-0.31752 0.0635,-0.31751 0.0212,-0.33869 -0.254,-0.16934 -0.23283,-0.12701 -0.21166,-0.10584 -0.21167,-0.0847 -0.21166,-0.0635 -0.1905,-0.0211 -0.1905,-0.0212 -0.19049,0.0212 -0.16934,0.0423 -0.16933,0.0635 -0.16933,0.0635 -0.14817,0.10585 -0.16933,0.10583 -0.14816,0.12701 -0.14817,0.14818 -0.127,0.14817 -0.29633,0.33869 -0.254,0.35985 -0.27516,0.40219 -0.27517,0.40219 -0.25399,0.42336 -0.27517,0.40218 -0.27516,0.38103 -0.29633,0.33869 -0.508,0.38102 -0.48683,0.33868 -0.508,0.33869 -0.52916,0.29635 -0.52916,0.27518 -0.52916,0.25402 -0.55033,0.25401 -0.55033,0.21168 -0.57149,0.21167 -0.55033,0.16935 -0.5715,0.16934 -0.57149,0.14818 -0.5715,0.14817 -0.57149,0.12701 -0.59267,0.10584 -0.59266,0.0847 -1.16415,0.16934 -1.16416,0.10584 -1.18533,0.0847 -1.16415,0.0635 -1.14299,0.0211 -1.14299,0 -1.12182,0.0212 -1.10066,0 -0.71966,-0.40219 -0.71966,-0.40219 -0.6985,-0.38102 -0.71965,-0.40219 -0.71967,-0.40219 -0.69849,-0.38102 -0.71966,-0.40219 -0.6985,-0.40219 -1.84148,0.48686 -1.84149,0.48686 -1.84148,0.44453 -1.82032,0.44452 -1.79915,0.42336 -1.77798,0.38102 -1.75682,0.35986 -1.73565,0.31751 -0.52917,0.93139 -0.55033,0.88905 -0.27516,0.42336 -0.29633,0.42335 -0.29633,0.42336 -0.3175,0.38103 -0.3175,0.40218 -0.31749,0.38102 -0.33867,0.35986 -0.33866,0.33869 -0.33866,0.33868 -0.35984,0.31752 -0.35982,0.29635 -0.381,0.29635 -0.381,0.25402 -0.381,0.25401 -0.40216,0.21167 -0.42333,0.21169 -0.42333,0.19051 -0.42333,0.14817 -0.44449,0.14818 -0.46567,0.10584 -0.46566,0.0847 -0.46566,0.0635 -0.48683,0.0423 -0.508,0.0212 -0.50799,-0.0212 -0.508,-0.0423 -0.52916,-0.0847 -0.55033,-0.10584 -0.46566,-0.35985 -0.381,-0.31752 -0.3175,-0.25401 -0.27516,-0.23285 -0.21167,-0.23285 -0.16933,-0.23285 -0.14816,-0.25401 -0.14817,-0.27518 -0.46566,-0.10584 -0.44449,-0.0847 -0.4445,-0.0635 -0.46566,-0.0847 -0.4445,-0.0635 -0.4445,-0.0847 -0.4445,-0.0635 -0.42332,-0.0847 -0.0423,-0.74087 0.0423,-0.69854 0.10583,-0.67738 0.14817,-0.61387 0.21166,-0.57153 0.254,-0.52919 0.29633,-0.50803 0.33866,-0.4657 0.40217,-0.44452 0.42333,-0.40219 0.46566,-0.35986 0.48683,-0.35985 0.52916,-0.31752 0.55033,-0.31751 0.59266,-0.27519 0.59266,-0.27518 0.61383,-0.25402 0.63499,-0.23284 0.635,-0.23284 0.65616,-0.21168 1.31232,-0.42336 1.31233,-0.42336 1.29115,-0.42336 1.24882,-0.44452 0.59266,-0.25402 0.5715,-0.25401 0.55033,-0.25401 0.52916,-0.29635 0,-0.31752 -0.0212,-0.23285 -0.0423,-0.21168 -0.0423,-0.16934 -0.0847,-0.12701 -0.0847,-0.14817 -0.127,-0.12701 -0.14816,-0.14818 -0.59266,-0.0423 -0.59266,0 -0.5715,0.0423 -0.59266,0.0847 -0.59266,0.10583 -0.59266,0.12701 -0.5715,0.16934 -0.59266,0.19052 -1.14299,0.40218 -1.16416,0.4657 -1.14299,0.46569 -1.12182,0.44453 -0.55033,0.21168 -0.55033,0.1905 -0.55033,0.16935 -0.52916,0.14817 -0.52916,0.12701 -0.52916,0.10584 -0.52916,0.0423 -0.508,0.0212 -0.50799,0 -0.508,-0.0847 -0.48683,-0.10584 -0.48683,-0.16934 -0.48683,-0.21168 -0.46566,-0.29635 -0.46567,-0.33869 -0.4445,-0.40219 -0.78315,-0.0635 -0.6985,-0.0423 -0.59266,-0.0423 -0.508,-0.0847 -0.23283,-0.0423 -0.21166,-0.0423 -0.1905,-0.0635 -0.16933,-0.0635 -0.14817,-0.0635 -0.14816,-0.0847 -0.10583,-0.0847 -0.10584,-0.0847 -0.10583,-0.10584 -0.0847,-0.12701 -0.0635,-0.127 -0.0635,-0.14818 -0.0423,-0.14817 -0.0423,-0.16935 -0.0212,-0.19051 -0.0211,-0.19051 -0.0211,-0.4657 0.0211,-0.50802 0.0211,-0.5927 0.0423,-0.67738 0.46566,-0.88905 0.48683,-0.86788 0.52916,-0.86788 0.508,-0.84672 0.46566,-0.84671 0.4445,-0.82555 0.21166,-0.40219 0.16934,-0.40219 0.16933,-0.40218 0.14816,-0.4022 -0.19049,-1.58759 -0.14817,-1.14306 -0.0423,-0.42336 0,-0.35985 0,-0.16935 0.0211,-0.14817 0.0211,-0.14818 0.0423,-0.127 0.0423,-0.12701 0.0847,-0.10584 0.0635,-0.12701 0.10584,-0.127 0.23283,-0.23285 0.29633,-0.25401 0.82549,-0.65621 1.18533,-0.88905 0.78315,-0.19051 0.78317,-0.21168 0.78315,-0.23284 0.80434,-0.23285 0.78315,-0.25402 0.78317,-0.25401 0.80432,-0.27518 0.78316,-0.29635 1.56632,-0.5927 1.56632,-0.65621 1.56632,-0.67737 1.54515,-0.71971 1.54516,-0.74087 1.54515,-0.78321 1.52399,-0.78321 1.50282,-0.80438 1.50282,-0.80438 1.48165,-0.82555 1.46049,-0.80438 1.46049,-0.82554 0.57149,-0.40219 0.55033,-0.40219 0.52916,-0.44453 0.48683,-0.42336 0.97366,-0.86788 0.95249,-0.86788 0.48683,-0.42336 0.48683,-0.42336 0.508,-0.40219 0.50799,-0.38102 0.55033,-0.38102 0.5715,-0.33869 0.59266,-0.31751 0.65616,-0.29635 0.71966,0.0212 0.71966,0.0212 0.71966,0.0212 0.71966,0.0423 0.71966,0.0212 0.71966,0.0423 0.71966,0.0423 0.71967,0.0423 0.67732,-0.19051 0.65616,-0.21168 0.635,-0.19051 0.61383,-0.23285 0.59266,-0.23284 0.57149,-0.25402 0.5715,-0.27518 0.55033,-0.29635 0.52916,-0.31752 0.52916,-0.33868 0.52916,-0.38103 0.508,-0.40218 0.50799,-0.44453 0.52916,-0.48686 0.508,-0.5292 0.52916,-0.55036 -0.0847,-2.60365 -0.0423,-2.09562 0.0212,-0.46569 0.0211,-0.42336 0.0212,-0.38102 0.0635,-0.38102 0.0635,-0.33869 0.0847,-0.33868 0.10583,-0.29635 0.127,-0.29636 0.14816,-0.25401 0.16933,-0.25401 0.21167,-0.23285 0.21166,-0.21168 0.27517,-0.21168 0.29633,-0.19051 0.3175,-0.16934 0.35983,-0.16934 0.40216,-0.14818 0.4445,-0.14817 0.46566,-0.14818 0.52916,-0.14817 0.55033,-0.12701 0.61383,-0.12701 0.65616,-0.12701 0.71966,-0.10584 0.74083,0.10584 0.71966,0.14818 0.69849,0.16934 0.6985,0.19051 0.71966,0.23285 0.71966,0.29635 0.76199,0.31752 0.80433,0.38102 0.84666,-0.82555 0.76199,-0.74087 0.74083,-0.65621 0.71966,-0.61387 0.35983,-0.29635 0.381,-0.27518 0.38099,-0.29635 0.40216,-0.27518 0.86783,-0.57153 0.99483,-0.57154 0.23283,-0.63503 0.21166,-0.50803 0.16933,-0.42336 0.16933,-0.35985 0.16934,-0.38102 0.21166,-0.42336 0.27517,-0.5292 0.35982,-0.6562 0.16934,0 0.1905,0 0.21166,0 0.23284,0 0.61382,0.86788 0.63499,0.86788 0.635,0.86789 0.61383,0.88905 0.635,0.86788 0.63499,0.88905 0.65616,0.86788 0.635,0.88905 0.91015,0 0.93133,0.0423 0.93132,0.0423 0.9525,0.0423 0.95249,0.0635 0.95249,0.0847 0.97366,0.0847 0.97365,0.0635 0.97366,0.0847 0.99483,0.0847 0.97366,0.0635 1.01599,0.0635 0.99483,0.0635 0.99482,0.0423 1.01599,0.0212 1.01599,0.0212 0.16933,0.29635 0.127,0.29635 0.0635,0.19051 0.0423,0.21168 0.0211,0.27519 0,0.33868 -0.6985,0.46569 -0.69849,0.44453 -0.69849,0.42336 -0.71967,0.40219 -0.69849,0.35985 -0.69849,0.35985 -0.67733,0.31752 -0.67733,0.31752 0.0847,0.0423 0.16934,0.0212 0.23283,0 0.254,-0.0212 0.67733,-0.10584 0.76199,-0.14818 0.78316,-0.16934 0.76199,-0.16934 0.635,-0.14818 0.46566,-0.10584 1.41815,0.0212 1.79916,0.0635 1.01599,0.0635 1.05832,0.0635 1.10066,0.0847 1.10066,0.10584 1.07949,0.12701 1.07949,0.12701 1.01599,0.16934 0.97366,0.19051 0.44449,0.10584 0.4445,0.10584 0.40216,0.12701 0.381,0.12701 0.35983,0.127 0.33866,0.14818 0.27517,0.127 0.254,0.16935 0,0.16934 0,0.21168 0,0.19051 0,0.23285 -0.635,0.42335 -0.59266,0.42336 -0.59266,0.44453 -0.55033,0.46569 -0.55033,0.46569 -0.52916,0.4657 -0.508,0.46569 -0.50799,0.46569 -0.99483,0.95256 -0.97366,0.93138 -0.48683,0.4657 -0.50799,0.44452 -0.508,0.44453 -0.52916,0.44452 0.0847,0.12701 0.10583,0.12701 0.10583,0.10584 0.127,0.10583 0.14816,0.10584 0.12701,0.0847 0.16933,0.0847 0.14816,0.0635 0.33867,0.14818 0.38099,0.10583 0.381,0.0847 0.42333,0.0635 0.42333,0.0635 0.4445,0.0423 0.44449,0.0212 0.4445,0.0212 0.91015,0 0.84667,0 1.37582,-0.5292 1.26999,-0.48686 1.16415,-0.46569 1.05833,-0.42336 1.01599,-0.35985 0.95249,-0.31752 0.46566,-0.12701 0.46567,-0.12701 0.46566,-0.0847 0.4445,-0.0847 0.46566,-0.0423 0.44449,-0.0423 0.46567,-0.0212 0.46566,0.0212 0.48683,0.0423 0.48683,0.0423 0.48683,0.0847 0.52916,0.12701 0.52916,0.12701 0.55033,0.16934 0.57149,0.21168 0.59267,0.23284 0.61383,0.25402 0.65616,0.29635 0.67732,0.33869 0.6985,0.35985 0.76199,-0.0212 0.74083,-0.0212 0.76199,-0.0212 0.76199,-0.0212 0.74083,-0.0212 0.78316,-0.0212 0.762,-0.0423 0.76199,-0.0212 -0.0847,0.46569 -0.12699,0.44453 -0.14817,0.40219 -0.1905,0.38102 -0.21166,0.35985 -0.23284,0.33869 -0.27516,0.29635 -0.29633,0.29635 -0.3175,0.27518 -0.33866,0.23285 -0.35983,0.23285 -0.381,0.21167 -0.40216,0.19052 -0.42333,0.19051 -0.42333,0.16934 -0.42333,0.14817 -0.4445,0.12701 -0.44449,0.12701 -0.46566,0.12701 -0.46567,0.0847 -0.93132,0.19051 -0.91017,0.14817 -1.77798,0.27519 -1.56632,0.23284 -0.67733,0.23285 -0.61383,0.23285 -0.57149,0.23284 -0.52916,0.25402 -0.48683,0.23284 -0.48683,0.25402 -0.4445,0.25401 -0.42332,0.25402 -0.86783,0.55036 -0.84666,0.61387 -0.93133,0.63504 -1.03715,0.7197 1.50282,-0.127 1.48165,-0.16935 0.71966,-0.0847 0.69849,-0.0423 0.6985,-0.0423 0.71966,-0.0212 0.33866,0 0.35983,0.0212 0.33867,0.0423 0.35983,0.0423 0.35983,0.0423 0.35983,0.0635 0.33866,0.0847 0.35983,0.10584 0.381,0.10584 0.35983,0.12701 0.35983,0.14817 0.381,0.16935 0.35983,0.19051 0.38099,0.21168 0.381,0.23284 0.40216,0.25402 0.6985,0.23284 0.71966,0.23285 0.74082,0.23285 0.74083,0.23284 -0.0423,0.21168 -0.0635,0.19051 -0.10583,0.21168 -0.10584,0.21168 -0.14816,0.19051 -0.14817,0.21168 -0.16933,0.19051 -0.1905,0.21168 -0.44449,0.40219 -0.46566,0.40219 -0.52917,0.38102 -0.55032,0.38102 -1.143,0.71971 -1.10066,0.6562 -0.99482,0.57154 -0.80433,0.48686 0.35984,0.10584 0.33866,0.0635 0.35983,0.0635 0.33866,0.0635 0.33866,0.0212 0.35984,0.0423 0.33866,0 0.33866,0.0212 0.6985,-0.0423 0.67733,-0.0635 0.69849,-0.0847 0.6985,-0.12701 0.71965,-0.16934 0.6985,-0.16934 0.71966,-0.19051 0.74082,-0.21168 1.48166,-0.4657 1.56632,-0.46569 0.84666,0.0423 0.82549,0.0635 0.80433,0.0635 0.78316,0.0635 0.76199,0.10584 0.74083,0.12701 0.381,0.0847 0.35983,0.0847 0.33866,0.10584 0.35983,0.10584 0.33867,0.127 0.33866,0.12701 0.33866,0.14818 0.33867,0.16934 0.33866,0.16934 0.3175,0.19051 0.33866,0.21168 0.3175,0.21168 0.3175,0.25402 0.31749,0.25401 0.3175,0.27519 0.3175,0.29635 0.31749,0.33868 0.3175,0.33869 0.29633,0.35985 0.3175,0.38102 -0.0635,0.16934 -0.0635,0.16935 -0.0847,0.14817 -0.0847,0.12701 -0.1905,0.25401 -0.21166,0.21168 -0.23284,0.16935 -0.25399,0.16934 -0.254,0.12701 -0.29633,0.10583 -0.29634,0.0847 -0.29632,0.0635 -0.29634,0.0635 -0.31749,0.0635 -0.61383,0.0847 -0.59266,0.10584 -0.46567,0.31752 -0.46566,0.33868 -0.44449,0.31752 -0.4445,0.33869 -0.44449,0.31751 -0.4445,0.33869 -0.4445,0.33868 -0.4445,0.35986 -1.01599,0.27518 -1.01599,0.23285 -1.01599,0.21168 -0.99482,0.19051 -0.99483,0.14817 -1.01599,0.12701 -0.97366,0.12701 -0.99482,0.10583 -0.97366,0.0847 -0.97366,0.10584 -0.97366,0.10584 -0.97366,0.10584 -0.95249,0.10583 -0.95249,0.14818 -0.95249,0.14817 -0.95249,0.19052 0,0.27518 0,0.27518 0.80432,0.27518 0.84666,0.25402 0.91016,0.23284 0.93133,0.23285 0.97365,0.21168 0.99483,0.21168 1.01599,0.19051 1.01599,0.19051 0,0.27518 0,0.29635 0,0.29635 0,0.29635 -0.69849,0.42336 -0.67733,0.35985 -0.67733,0.29635 -0.65616,0.27519 -0.63499,0.25401 -0.65616,0.21168 -0.65617,0.21168 -0.65616,0.21168 -0.0423,0.127 -0.0211,0.14818 0,0.14817 0,0.12701 1.33348,-0.14817 1.29116,-0.14818 0.63499,-0.0847 0.635,-0.0635 0.63499,-0.0423 0.635,-0.0212 0.63499,-0.0211 0.65616,0.0211 0.65617,0.0423 0.65616,0.0847 0.67732,0.10584 0.6985,0.14817 0.69849,0.19052 0.74083,0.25401 1.88382,0.95256 1.69331,0.86788 0.78317,0.38102 0.76199,0.35985 0.78316,0.33869 0.76199,0.29635 0.762,0.29635 0.80432,0.27518 0.84666,0.23285 0.86783,0.21168 0.93132,0.21168 0.99482,0.16934 1.0795,0.14818 1.16416,0.14817 -0.0423,0.50803 -0.10584,0.46569 -0.16933,0.42336 -0.21166,0.38102 -0.27517,0.35985 -0.33866,0.29635 -0.381,0.27519 -0.42333,0.25401 -0.46566,0.21168 -0.48683,0.16934 -0.52916,0.16934 -0.55033,0.12701 -0.59266,0.10584 -0.59266,0.0847 -0.61383,0.0635 -0.635,0.0423 -0.63499,0.0211 -0.635,0 -0.65616,0 -0.63499,0 -1.22766,-0.0635 -1.18532,-0.0635 -1.10066,-0.0847 -0.95249,-0.0847 -0.80433,-0.0423 -0.61383,-0.0423 -0.50799,0.127 -0.46567,0.10584 -0.44449,0.10584 -0.40216,0.12701 -0.40217,0.12701 -0.381,0.14817 -0.38099,0.12701 -0.35983,0.14817 -0.71966,0.33869 -0.71966,0.35985 -0.74083,0.4022 -0.80433,0.42335 0.4445,0.29635 0.4445,0.25402 0.46566,0.23284 0.4445,0.23285 0.46566,0.21168 0.46566,0.19051 0.46566,0.16934 0.48683,0.14818 0.46567,0.14817 0.48683,0.12701 0.48683,0.127 0.48683,0.10585 0.48682,0.0847 0.48683,0.0847 0.508,0.0635 0.508,0.0635 1.01599,0.10584 1.01599,0.0635 1.05832,0.0635 1.05833,0.0212 1.07949,0.0211 1.07949,0 1.10065,0.0212 1.10066,0.0212 0.0847,0.0847 0.0635,0.0847 0.0423,0.0847 0.0423,0.12701 0.0635,0.44452 0.0635,0.78321 -0.97366,0.63504 -0.762,0.50803 -0.63499,0.40219 -0.50799,0.35985 -0.508,0.35986 -0.52916,0.38102 -0.61383,0.46569 -0.78316,0.5927 -0.91016,0.33869 -0.93132,0.29635 -0.93133,0.25401 -0.91016,0.23285 -0.93132,0.16934 -0.93133,0.16934 -0.91016,0.12701 -0.93132,0.0847 -0.91016,0.0847 -0.93133,0.0847 -0.91015,0.0423 -0.91016,0.0423 -1.82032,0.0635 -1.79915,0.0635 0,0.27518 0,0.27518 0.59266,0.38103 0.65616,0.35985 0.67733,0.38102 0.69849,0.35986 0.74083,0.35985 0.76199,0.35986 0.78316,0.35985 0.78316,0.35985 0.0423,0.42336 0.0635,0.40219 0.0635,0.42336 0.0635,0.42336 -0.86783,0.21167 -0.82549,0.27518 -0.80433,0.27519 -0.76199,0.29635 -0.762,0.31751 -0.74082,0.31752 -0.762,0.33869 -0.78315,0.31752 -0.0423,0.0847 -0.0423,0.10584 -0.0212,0.10584 -0.0211,0.127 0.29633,0.0847 0.3175,0.0847 0.31749,0.0635 0.3175,0.0423 0.63499,0.0847 0.67734,0.0635 1.39698,0.0423 1.48165,0.0211 0.74083,0 0.76199,0.0212 0.78317,0.0212 0.76199,0.0635 0.78316,0.0635 0.80432,0.10584 0.78317,0.12701 0.78315,0.16934 0.29634,0.35986 0.29633,0.31751 0.33866,0.27519 0.33867,0.25401 0.35982,0.23284 0.381,0.19051 0.381,0.19052 0.42333,0.16934 0.42333,0.14818 0.44449,0.127 0.4445,0.14818 0.46566,0.10584 0.99483,0.25401 1.03715,0.25402 0.10584,0.23284 0.0635,0.21168 -0.0211,0.21168 -0.0423,0.21168 -0.0847,0.21168 -0.14816,0.21167 -0.16934,0.19052 -0.21166,0.21167 -0.23283,0.19051 -0.27517,0.19052 -0.29633,0.16934 -0.33866,0.19051 -0.33867,0.16934 -0.35982,0.16934 -0.35983,0.16935 -0.381,0.14817 -0.80433,0.29635 -0.78316,0.27518 -0.76199,0.23285 -0.71966,0.21168 -1.22766,0.31752 -0.71966,0.16934 -0.93132,0 -0.93133,-0.0211 -0.91016,-0.0423 -0.91016,-0.0423 -1.79915,-0.0847 -1.75682,-0.127 -1.71448,-0.10584 -1.71449,-0.10584 -0.82549,-0.0423 -0.84666,-0.0211 -0.82549,-0.0212 -0.8255,0 0.23284,0.38103 0.23282,0.40218 0.23284,0.40219 0.23283,0.42336 1.24882,0.33869 1.60866,0.40218 0.91015,0.23285 0.91016,0.27518 0.95249,0.27519 0.93133,0.33868 0.4445,0.16935 0.46566,0.1905 0.42333,0.19052 0.42333,0.21168 0.42333,0.23284 0.381,0.23285 0.35982,0.23285 0.35983,0.27518 0.3175,0.25401 0.27516,0.29635 0.27517,0.29636 0.21166,0.31751 0.19051,0.33869 0.14816,0.33868 0.127,0.35985 0.0635,0.38103 -0.48683,0.35985 -0.508,0.31752 -0.52916,0.29635 -0.52916,0.25402 -0.55033,0.25401 -0.55033,0.21168 -0.55033,0.19051 -0.57149,0.16934 -0.5715,0.14818 -0.59266,0.127 -0.59266,0.10584 -0.59266,0.0847 -0.61383,0.0635 -0.59266,0.0635 -0.61383,0.0423 -0.61383,0.0211 -0.61382,0 -0.61384,0 -0.61382,0 -0.61383,-0.0211 -1.22765,-0.0635 -1.2065,-0.0847 -1.20649,-0.10583 -1.16415,-0.10585 -1.14299,-0.127 -1.12183,-0.0847 0.14817,0.21167 0.14816,0.19052 0.14817,0.19051 0.16933,0.16934 0.16933,0.16934 0.16933,0.14817 0.1905,0.14818 0.16934,0.12701 0.76199,0.46569 0.71966,0.42336 0.35983,0.23285 0.3175,0.25401 0.14816,0.14817 0.14817,0.14818 0.127,0.16934 0.12699,0.16935 0.10584,0.19051 0.10583,0.19051 0.0847,0.23284 0.0847,0.23285 0.0423,0.25402 0.0423,0.29635 0.0211,0.29635 0.0212,0.31752 -0.21166,0.23284 -0.21167,0.21168 -0.23283,0.21168 -0.23283,0.16934 -0.254,0.14818 -0.254,0.127 -0.25399,0.10585 -0.27517,0.10583 -0.27516,0.0635 -0.27517,0.0635 -0.27516,0.0635 -0.29634,0.0423 -0.57149,0.0423 -0.59266,0 -0.61383,-0.0211 -0.59266,-0.0635 -0.5715,-0.0423 -0.59266,-0.0635 -0.55033,-0.0635 -0.55033,-0.0211 -0.50799,-0.0211 -0.48683,0.0211 0.127,0.19052 0.23283,0.33868 0.27516,0.42335 0.27517,0.48687 0.14816,0.25402 0.127,0.27518 0.10584,0.27518 0.10583,0.27518 0.0635,0.27518 0.0423,0.27518 0.0211,0.25402 -0.0211,0.25401 -0.55033,0.16935 -0.55033,0.127 -0.52916,0.10584 -0.508,0.0847 -0.50799,0.0635 -0.48683,0.0423 -0.48683,0.0423 -0.46566,0.0423 0.61382,0.5292 0.71966,0.55036 0.35983,0.29635 0.33867,0.31752 0.3175,0.31752 0.27516,0.33869 0.10583,0.16934 0.10583,0.16934 0.0847,0.16934 0.0635,0.19052 0.0423,0.16934 0.0423,0.19051 0,0.16934 -0.0211,0.19051 -0.0423,0.19052 -0.0847,0.19051 -0.0847,0.1905 -0.127,0.19052 -0.16933,0.21168 -0.1905,0.19051 -0.23283,0.19051 -0.27516,0.21168 -1.016,-0.0635 -0.82549,-0.0635 -0.67733,-0.0423 -0.59266,-0.0635 -0.63499,-0.0847 -0.6985,-0.127 -0.86782,-0.14818 -1.12183,-0.21168 0.55033,0.52919 0.5715,0.5292 0.55032,0.55037 0.55033,0.5292 0.5715,0.52919 0.55033,0.5292 0.55033,0.55036 0.57149,0.5292 1.24882,0.88905 1.26999,0.88905 1.26999,0.84672 1.31232,0.82554 1.31232,0.82555 1.31233,0.78321 1.35465,0.78321 1.35466,0.76204 1.35466,0.71971 1.37581,0.71971 1.39699,0.71971 1.39699,0.67737 1.41816,0.67737 1.41815,0.6562 1.43932,0.65621 1.41816,0.63504 1.46049,0.61386 1.43931,0.61387 1.46049,0.61387 1.48165,0.57153 2.94215,1.16424 2.96331,1.12189 2.98447,1.1219 3.00564,1.07956 2.98448,1.07956 3.00564,1.0584 1.14299,0.0847 1.16415,0.0635 1.20649,0.0635 1.2065,0.0635 1.24881,0.0635 1.22766,0.0847 1.26999,0.10584 1.24882,0.14818 1.26999,0.14817 1.26999,0.21168 0.61383,0.10584 0.635,0.12701 0.61382,0.12701 0.61383,0.14817 0.61383,0.16934 0.61383,0.16934 0.61383,0.21169 0.59266,0.19051 0.59266,0.23284 0.59266,0.23285 0.57149,0.25401 0.5715,0.27519 1.12183,0.84671 1.12182,0.86788 1.12182,0.86789 1.14299,0.86788 1.18532,0.86788 1.22766,0.88905 1.29116,0.86788 1.33349,0.86788 0.48683,0.44453 0.50799,0.46569 0.52917,0.48687 0.50799,0.50803 1.03716,1.07955 1.05832,1.14307 1.03716,1.1854 1.05833,1.20657 1.03715,1.20657 1.03716,1.1854 0.254,0 0.27516,-0.0211 0.27516,-0.0423 0.27517,-0.0635 0.27516,-0.0635 0.27517,-0.0635 0.27516,-0.10583 0.27517,-0.0847 0.55032,-0.23285 0.5715,-0.27518 0.55033,-0.31752 0.55033,-0.31752 0.55033,-0.35985 0.55033,-0.35986 0.52916,-0.38102 0.52916,-0.40219 1.01599,-0.76204 0.95249,-0.71971 0.42333,-0.46569 0.35983,-0.44453 0.3175,-0.44453 0.27516,-0.44452 0.21167,-0.44453 0.16933,-0.44452 0.127,-0.44453 0.0847,-0.44452 0.0423,-0.44453 0.0211,-0.44452 -0.0423,-0.42336 -0.0635,-0.44452 -0.0847,-0.44453 -0.127,-0.42335 -0.14816,-0.42336 -0.16934,-0.42336 -0.19049,-0.42336 -0.21167,-0.42336 -0.254,-0.42335 -0.25399,-0.42336 -0.254,-0.40219 -0.29633,-0.40219 -0.29633,-0.40219 -0.29633,-0.40219 -0.61383,-0.76204 -0.635,-0.76204 -0.63499,-0.74088 -0.61383,-0.69854 -1.14299,-0.69854 -1.12183,-0.69854 -1.14298,-0.69854 -1.12183,-0.69854 -1.12182,-0.71971 -1.12183,-0.7197 -1.10065,-0.71971 -1.10066,-0.71971 -1.07949,-0.74087 -1.07949,-0.71971 -1.05833,-0.74088 -1.03715,-0.74087 -1.016,-0.74088 -1.01599,-0.74087 -0.99482,-0.74088 -0.9525,-0.74087 -0.55032,-0.84672 -0.508,-0.84672 -0.48683,-0.86788 -0.44449,-0.86788 -0.86783,-1.75693 -0.82549,-1.7146 -0.80433,-1.7146 -0.78316,-1.62992 -0.42333,-0.78321 -0.42333,-0.78322 -0.42332,-0.74087 -0.46567,-0.69854 -0.78316,-0.57153 -0.69849,-0.5927 -0.61383,-0.61387 -0.55033,-0.63504 -0.4445,-0.67737 -0.38099,-0.69854 -0.29633,-0.69854 -0.254,-0.74087 -0.16933,-0.76205 -0.127,-0.76204 -0.0635,-0.78321 -0.0211,-0.78321 0.0423,-0.80438 0.0635,-0.80438 0.10583,-0.82555 0.14816,-0.82554 0.16934,-0.82555 0.19049,-0.82555 0.21167,-0.82555 0.23283,-0.82554 0.508,-1.65109 0.50799,-1.60876 0.508,-1.56643 0.4445,-1.52408 0.19049,-0.71971 0.16933,-0.71971 0.127,-0.69853 0.10584,-0.65621 -0.0212,-0.95256 -0.0211,-0.95255 -0.0211,-0.93139 -0.0211,-0.93138 -0.0212,-0.93139 -0.0211,-0.93138 -0.0211,-0.93139 -0.0423,-0.93139 0.1905,-0.14817 0.21167,-0.10584 0.21166,-0.0635 0.23284,0 0.25399,0.0423 0.254,0.0635 0.27516,0.127 0.27517,0.14818 0.29633,0.16934 0.29633,0.21168 0.29633,0.23285 0.29633,0.27518 0.61383,0.57153 0.63499,0.65621 0.61383,0.67737 0.59266,0.7197 0.59267,0.69854 0.55032,0.67738 0.508,0.63503 0.4445,0.57154 0.40216,0.46569 0.31749,0.35985 0.8255,-1.16423 0.78316,-1.1219 0.78316,-1.05839 0.78316,-0.99489 0.78316,-0.93139 0.78316,-0.88905 0.40216,-0.44452 0.42333,-0.4022 0.40217,-0.42335 0.42333,-0.40219 0.42332,-0.38102 0.4445,-0.38102 0.4445,-0.38103 0.46566,-0.35985 0.46566,-0.35985 0.48683,-0.35985 0.508,-0.35986 0.50799,-0.33869 0.52917,-0.33868 0.52916,-0.33869 0.57149,-0.33869 0.5715,-0.33868 1.22765,-0.6562 1.29116,-0.65621 0.71966,-0.25401 0.71966,-0.25401 0.71966,-0.25402 0.71966,-0.27518 0.71966,-0.25402 0.71966,-0.25401 0.71967,-0.25402 0.71965,-0.25401 1.22766,-0.0847 1.22766,-0.10584 1.22765,-0.0847 1.22766,-0.12701 1.24882,-0.10584 1.22766,-0.14818 1.24882,-0.14817 1.22765,-0.19051 1.22766,-0.19051 1.22766,-0.23285 1.22765,-0.27518 1.22766,-0.29635 0.59266,-0.16935 0.61383,-0.1905 0.61383,-0.19052 0.59266,-0.19051 0.59266,-0.21167 0.61383,-0.21168 0.59266,-0.25402 0.59266,-0.23285 0.0635,-0.14817 0.0423,-0.14818 0.0211,-0.127 0.0211,-0.19051 0,-0.57154 -0.0211,-1.05839 -0.762,-0.63503 -0.76199,-0.65621 -0.71966,-0.63504 -0.67733,-0.63503 -0.65616,-0.61387 -0.59266,-0.61387 -0.52916,-0.5927 -0.4445,-0.57153 -0.127,-0.57154 -0.0635,-0.52919 -0.0423,-0.50803 0,-0.48686 0.0423,-0.44452 0.0635,-0.42336 0.0847,-0.38102 0.127,-0.38102 0.16933,-0.33869 0.16933,-0.31752 0.21167,-0.29635 0.23283,-0.27518 0.254,-0.27518 0.29633,-0.23285 0.29633,-0.21168 0.3175,-0.21168 0.31749,-0.19051 0.35983,-0.16935 0.35983,-0.16933 0.381,-0.14818 0.38099,-0.12701 0.40217,-0.12701 0.40216,-0.10583 0.40216,-0.10584 0.84666,-0.21168 0.84667,-0.16935 0.84665,-0.16934 0.84666,-0.14818 0.1905,-0.25401 0.14817,-0.25401 0.127,-0.23285 0.10583,-0.23285 0.0635,-0.21168 0.0423,-0.21167 0,-0.19051 0,-0.19052 -0.0423,-0.1905 -0.0635,-0.16935 -0.0847,-0.16934 -0.0847,-0.14818 -0.127,-0.16934 -0.127,-0.12701 -0.14817,-0.14817 -0.16933,-0.12701 -0.35983,-0.23285 -0.40216,-0.1905 -0.42333,-0.19052 -0.4445,-0.14817 -0.46566,-0.14818 -0.4445,-0.10583 -0.42333,-0.10585 -0.40216,-0.0635 0,-0.33868 0.0423,-0.31752 0.0423,-0.29635 0.0423,-0.29635 0.50799,-0.19052 0.508,-0.14817 0.48683,-0.14818 0.48683,-0.127 0.48683,-0.10584 0.48683,-0.0847 0.46566,-0.0635 0.46566,-0.0423 0.4445,-0.0211 0.46566,-0.0212 0.42333,0.0212 0.4445,0.0423 0.44449,0.0635 0.42333,0.0847 0.42333,0.10584 0.40217,0.12701 0.42332,0.14817 0.40217,0.16935 0.40216,0.16934 0.40217,0.21168 0.38099,0.23284 0.40216,0.25402 0.381,0.27518 0.381,0.29635 0.381,0.31752 0.38099,0.33869 0.35983,0.35985 0.381,0.38102 0.35983,0.40219 0.35983,0.44453 0.35983,0.44452 0.35983,0.4657 0,0.93138 -0.0423,0.80438 -0.0423,0.38102 -0.0423,0.35986 -0.0635,0.33868 -0.0635,0.31752 -0.0847,0.29635 -0.0847,0.27518 -0.10583,0.25402 -0.10583,0.25401 -0.127,0.23285 -0.127,0.21167 -0.16933,0.21169 -0.14816,0.19051 -0.1905,0.1905 -0.1905,0.19052 -0.21166,0.14817 -0.21167,0.16935 -0.254,0.14817 -0.254,0.14818 -0.25399,0.14817 -0.29634,0.14818 -0.63499,0.27518 -0.69849,0.27518 -0.78316,0.29635 -0.86783,0.29635 -0.38099,0.27518 -0.35984,0.27519 -0.38099,0.27518 -0.35983,0.29635 0,0.35985 0,0.29635 0.0423,0.27519 0.0847,0.23284 0.127,0.27518 0.1905,0.29635 0.254,0.38103 0.33866,0.46569 0.65616,0.46569 0.635,0.46569 0.29633,0.23285 0.29633,0.25402 0.27516,0.25401 0.254,0.27518 0.254,0.25402 0.254,0.27518 0.23283,0.29635 0.21166,0.27518 0.21167,0.29635 0.19049,0.29635 0.16934,0.31752 0.14816,0.31752 0.14817,0.31752 0.127,0.33868 0.10583,0.33869 0.10583,0.35985 0.0635,0.33869 0.0635,0.38102 0.0211,0.35986 0.0211,0.40218 0,0.38102 -0.0211,0.4022 -0.0635,0.42335 -0.0635,0.42336 -0.0847,0.42336 -0.10583,0.44452 -0.14817,0.4657 -0.16933,0.46569 -0.381,0.33869 -0.40216,0.35985 -0.4445,0.33868 -0.42332,0.31752 -0.46567,0.31752 -0.46566,0.31752 -0.48683,0.29635 -0.48683,0.29635 -1.01599,0.57153 -1.03716,0.55036 -1.07949,0.50804 -1.10065,0.48685 -1.10066,0.4657 -1.10066,0.46569 -1.10066,0.42336 -1.10066,0.40219 -1.05832,0.40219 -1.05833,0.38102 -0.99482,0.38102 -0.97366,0.35985 -0.65616,0.31752 -0.63499,0.33869 -0.65616,0.31752 -0.65617,0.33868 -0.63499,0.31752 -0.65616,0.33869 -0.65616,0.33868 -0.65617,0.35985 0,0.19052 0,0.16934 0,0.19051 0,0.19051 1.41816,-0.14817 1.41816,-0.12701 1.41815,-0.14818 1.41815,-0.127 1.41816,-0.14818 1.41816,-0.14817 1.41815,-0.12701 1.41815,-0.14818 0.42333,-0.35985 0.59266,-0.5292 0.74083,-0.63503 0.86783,-0.76205 0.95249,-0.80437 1.03716,-0.86788 1.12182,-0.86789 1.14299,-0.86788 0.59267,-0.40219 0.59266,-0.40219 0.59266,-0.38102 0.57149,-0.38102 0.59266,-0.31752 0.59266,-0.31752 0.5715,-0.27518 0.55033,-0.23285 0.55033,-0.21168 0.52916,-0.14817 0.508,-0.10585 0.50799,-0.0635 0.46566,0 0.4445,0.0423 0.42333,0.10584 0.381,0.19051 0.0847,0.21168 0.10583,0.27518 -0.31749,0.5292 -0.3175,0.50802 -0.35983,0.4657 -0.35983,0.44452 -0.40216,0.42336 -0.42333,0.42336 -0.4445,0.42336 -0.46566,0.44452 -0.10584,0.44453 -0.0847,0.46569 -0.0635,0.4657 -0.0423,0.46568 -0.0635,0.97373 -0.0635,0.97372 -0.0212,0.50803 -0.0635,0.50803 -0.0635,0.5292 -0.0635,0.50803 -0.10583,0.52919 -0.14816,0.5292 -0.14817,0.52919 -0.21166,0.55037 -0.889,0.76204 -0.88899,0.74088 -0.91016,0.7197 -0.91016,0.71972 -0.93132,0.67736 -0.9525,0.65621 -0.95249,0.63503 -0.99482,0.5927 0.35983,0 0.35983,-0.0211 0.35983,-0.0423 0.35983,-0.0423 0.33866,-0.0635 0.33867,-0.0847 0.35983,-0.0847 0.33866,-0.0847 0.67733,-0.21167 0.65616,-0.23285 0.67733,-0.25402 0.67732,-0.27518 0.67733,-0.27518 0.6985,-0.25402 0.69849,-0.25401 0.6985,-0.23285 0.74082,-0.21168 0.74083,-0.19051 0.38099,-0.0635 0.40217,-0.0635 0.381,-0.0423 0.40216,-0.0423 0.16933,0.16934 0.10583,0.12701 0.0847,0.127 0.0423,0.12701 0.0423,0.31752 0,0.55036 -0.508,0.4022 -0.44449,0.35985 -0.40217,0.35985 -0.381,0.33868 -0.33866,0.33869 -0.29633,0.33869 -0.29633,0.33869 -0.27516,0.33868 -0.254,0.35985 -0.27516,0.38102 -0.254,0.4022 -0.254,0.42335 -0.55033,0.97372 -0.61383,1.14307 -0.80433,0.74088 -0.97365,0.86788 -0.52917,0.46569 -0.55032,0.48686 -0.52917,0.5292 -0.52916,0.52919 -0.50799,0.55037 -0.46567,0.55036 -0.21166,0.29635 -0.1905,0.27519 -0.16933,0.29635 -0.16933,0.29635 -0.14817,0.27518 -0.127,0.29635 -0.10583,0.29635 -0.0635,0.29635 -0.0635,0.29635 -0.0211,0.29635 0,0.29635 0.0211,0.29635 0.71966,-0.29635 0.67733,-0.27518 0.635,-0.25402 0.63499,-0.21168 0.59266,-0.1905 0.59266,-0.16935 0.59266,-0.14817 0.61383,-0.12701 0.59267,-0.12701 0.63499,-0.0847 0.63499,-0.10584 0.6985,-0.0847 1.48165,-0.12701 1.67215,-0.14817 0.48683,-0.31752 0.381,-0.25402 0.381,-0.23284 0.35983,-0.16934 0.40216,-0.16935 0.46566,-0.127 0.55033,-0.14818 0.6985,-0.127 -0.0847,0.7832 -0.0847,0.71971 -0.10583,0.69854 -0.10583,0.6562 -0.10583,0.61387 -0.127,0.57154 -0.14817,0.52919 -0.14817,0.50803 -0.16932,0.46569 -0.19051,0.44453 -0.21166,0.42336 -0.21166,0.40219 -0.23284,0.35985 -0.25399,0.35985 -0.27517,0.33869 -0.29633,0.31752 -0.3175,0.29635 -0.33866,0.29635 -0.33866,0.27518 -0.381,0.27518 -0.42333,0.25402 -0.42333,0.27518 -0.46567,0.25402 -0.46566,0.25401 -1.05832,0.5292 -1.16416,0.55036 -1.29115,0.5927 -1.41816,0.65621 -0.99482,0.69854 -0.86783,0.6562 -0.76199,0.5927 -0.65616,0.55036 -0.27517,0.27519 -0.27516,0.25401 -0.23283,0.27518 -0.23283,0.25402 -0.21167,0.27518 -0.19049,0.25401 -0.16934,0.27518 -0.16933,0.27519 -0.14816,0.29635 -0.127,0.29635 -0.12701,0.29635 -0.12699,0.31751 -0.21167,0.69855 -0.1905,0.74087 -0.38099,1.79927 -0.46566,2.2438 0.33866,-0.25402 0.33866,-0.25401 0.3175,-0.29635 0.29633,-0.29635 0.29633,-0.29635 0.29633,-0.31752 0.27517,-0.31752 0.25399,-0.33868 0.508,-0.67738 0.48683,-0.71971 0.44449,-0.7197 0.42334,-0.71971 0.61382,-0.50803 0.93133,-0.78321 0.57149,-0.44453 0.59266,-0.46569 0.65617,-0.44453 0.65616,-0.44452 0.31749,-0.21168 0.33867,-0.19051 0.3175,-0.16934 0.33866,-0.16935 0.3175,-0.14817 0.31749,-0.12701 0.3175,-0.0847 0.29633,-0.0847 0.29633,-0.0423 0.27517,-0.0423 0.27516,0.0212 0.23284,0.0423 0.23282,0.0635 0.21167,0.12701 0.21166,0.14817 0.16933,0.19052 -0.0423,0.31752 -0.0423,0.33868 -0.0635,0.33868 -0.0423,0.35986 -0.21167,0.42336 -0.21166,0.44452 -0.16933,0.44453 -0.16934,0.44452 -0.14816,0.44453 -0.127,0.46569 -0.127,0.4657 -0.10583,0.46569 -0.1905,0.95255 -0.127,0.95256 -0.127,0.95255 -0.10583,0.97372 -0.10584,0.97372 -0.10583,0.97373 -0.14816,0.95255 -0.14817,0.95255 -0.10583,0.4657 -0.10583,0.44452 -0.10583,0.4657 -0.127,0.46569 -0.14817,0.44452 -0.16933,0.44453 -0.16933,0.42336 -0.21167,0.42335 -0.48683,0.35986 -0.63499,0.40219 -0.69849,0.48686 -0.67733,0.52919 -0.3175,0.25402 -0.29633,0.27518 -0.254,0.27518 -0.21166,0.27519 -0.0847,0.14817 -0.0635,0.12701 -0.0635,0.127 -0.0423,0.14818 -0.0423,0.127 0,0.12702 0.0211,0.127 0.0212,0.12701 0.40216,0.0847 0.40216,0.0423 0.381,0.0423 0.35983,0.0211 0.33866,0 0.3175,-0.0211 0.3175,-0.0423 0.29633,-0.0635 0.29633,-0.0847 0.27516,-0.0847 0.27517,-0.0847 0.254,-0.12701 0.50799,-0.23284 0.508,-0.27519 0.48683,-0.29635 0.48683,-0.29635 0.50799,-0.29635 0.55033,-0.25401 0.27517,-0.12701 0.27516,-0.12701 0.3175,-0.10583 0.29633,-0.10585 0.33866,-0.0847 0.33867,-0.0635 0.35983,-0.0423 0.35983,-0.0423 0.14816,0.21168 0.127,0.21168 0.10584,0.23284 0.10583,0.23285 0.0635,0.23285 0.0635,0.25401 0.0211,0.25402 0.0212,0.25401 0.0211,0.25401 -0.0211,0.27519 -0.0212,0.25401 -0.0423,0.27518 -0.0423,0.27519 -0.0635,0.25401 -0.0847,0.27519 -0.0847,0.27518 -0.1905,0.52919 -0.254,0.5292 -0.27517,0.5292 -0.29632,0.50803 -0.31751,0.46569 -0.35982,0.46569 -0.35983,0.42336 -0.35984,0.38102 -0.48683,0.27518 -0.57149,0.29635 -0.59266,0.27518 -0.63499,0.29635 -1.31233,0.59271 -1.33349,0.5927 -0.63499,0.29635 -0.59266,0.29635 -0.5715,0.29635 -0.48683,0.31751 -0.23283,0.14818 -0.1905,0.14817 -0.19049,0.16935 -0.16933,0.14817 -0.14817,0.14818 -0.10584,0.16934 -0.10583,0.14817 -0.0635,0.14818 0.63499,-0.0423 0.61382,-0.0212 0.635,-0.0423 0.635,-0.0212 0.63499,-0.0423 0.63499,-0.0211 0.635,-0.0211 0.65616,-0.0211 0.46566,-0.16934 0.508,-0.19051 0.50799,-0.19052 0.52917,-0.1905 0.27516,-0.0847 0.27517,-0.0635 0.29632,-0.0635 0.29634,-0.0423 0.29633,-0.0423 0.3175,0 0.31749,0 0.3175,0.0423 0.1905,0.6562 0.10583,0.61387 0.0635,0.5927 -0.0211,0.55037 -0.0847,0.50803 -0.127,0.48686 -0.16932,0.46569 -0.25401,0.42336 -0.27516,0.40219 -0.3175,0.38102 -0.38099,0.35985 -0.40217,0.31752 -0.42332,0.31752 -0.46567,0.29635 -0.48683,0.29635 -0.50799,0.27518 -0.52916,0.25401 -0.55033,0.25402 -0.55033,0.23285 -0.5715,0.23284 -1.14299,0.46569 -1.12182,0.44453 -0.55033,0.23285 -0.55033,0.23284 -0.52916,0.23285 -0.48683,0.25402 -0.48683,0.25401 -0.46566,0.27518 -0.42333,0.29635 -0.381,0.29635 0.10583,0.23285 0.127,0.23284 0.14817,0.23285 0.14816,0.21168 0.16933,0.19051 0.16934,0.19051 0.21166,0.16935 0.21166,0.16934 0.21167,0.14817 0.23283,0.14818 0.23284,0.14818 0.25399,0.127 0.27517,0.12701 0.25399,0.10584 0.27517,0.10583 0.29633,0.0847 0.59266,0.16934 0.61383,0.14818 0.61383,0.10584 0.65616,0.0847 0.63499,0.0635 0.65616,0.0423 0.635,0.0211 0.63499,0.0211 0.35984,-0.21167 0.50799,-0.29635 0.29633,-0.14818 0.29633,-0.16934 0.33866,-0.12701 0.33867,-0.14817 0.33866,-0.10584 0.33866,-0.0847 0.35983,-0.0635 0.31751,-0.0211 0.16932,0.0211 0.14817,0 0.16933,0.0423 0.14817,0.0423 0.12699,0.0635 0.14817,0.0847 0.127,0.0847 0.10583,0.10585 -0.21166,0.52919 -0.23283,0.50803 -0.254,0.4657 -0.29633,0.48685 -0.29633,0.44453 -0.33866,0.42336 -0.33867,0.42336 -0.381,0.40219 -0.38099,0.40218 -0.40217,0.38103 -0.42333,0.35985 -0.42333,0.35985 -0.44449,0.33869 -0.4445,0.33868 -0.46566,0.31752 -0.48683,0.31752 -0.86783,0.16934 -1.01599,0.14818 -1.10065,0.16934 -1.14299,0.16935 -1.10066,0.14817 -1.03716,0.16935 -0.91016,0.16933 -0.74083,0.14818 -0.0423,0.29635 -0.0212,0.27519 0,0.27518 0,0.27518 0.21166,0.16934 0.23284,0.16935 0.21166,0.127 0.21167,0.12701 0.21166,0.0847 0.21166,0.0847 0.19051,0.0635 0.21166,0.0635 0.21166,0.0423 0.21167,0.0211 0.21166,0.0212 0.21167,0 0.40216,-0.0212 0.42333,-0.0423 0.88899,-0.12701 0.93133,-0.12701 0.508,-0.0635 0.50799,-0.0212 0.52916,0 0.5715,0.0423 -0.0847,0.31752 -0.10583,0.29635 -0.127,0.29635 -0.127,0.29635 -0.16933,0.27518 -0.16933,0.27518 -0.1905,0.27518 -0.1905,0.27518 -0.23283,0.25402 -0.21166,0.25401 -0.25401,0.23285 -0.23282,0.25402 -0.52917,0.44452 -0.55032,0.44453 -0.59267,0.40219 -0.59266,0.40218 -0.59266,0.35986 -0.61383,0.33869 -1.18532,0.63503 -1.10066,0.55037 -0.78316,0 -0.74082,-0.0423 -0.71967,-0.0423 -0.69849,-0.0847 -0.65616,-0.0847 -0.635,-0.12701 -0.59266,-0.12701 -0.59266,-0.14817 -0.5715,-0.19051 -0.55032,-0.19051 -0.52917,-0.19051 -0.50799,-0.23285 -0.48683,-0.25402 -0.48683,-0.25401 -0.46566,-0.27518 -0.46567,-0.29635 -0.44449,-0.31752 -0.44449,-0.31752 -0.4445,-0.35985 -0.42333,-0.33869 -0.86783,-0.76204 -0.86782,-0.82555 -0.889,-0.86788 -0.91016,-0.91022 -0.95249,-0.97372 -0.99482,-1.01606 -0.4445,-0.10584 -0.42333,-0.0635 -0.40216,-0.0635 -0.381,-0.0423 -0.35983,-0.0211 -0.33866,0 -0.3175,0 -0.3175,0.0423 -0.61383,0.0847 -0.59266,0.14818 -0.61383,0.14817 -0.63499,0.19051 0,1.48176 0,1.48175 0,1.50292 0,1.48175 0,1.50292 0,1.48175 0,1.50291 0,1.50292 -0.52916,1.60876 -0.5715,1.56642 -0.29633,0.78321 -0.29633,0.76205 -0.3175,0.78321 -0.33866,0.76204 -0.3175,0.76204 -0.35983,0.74088 -0.35983,0.74087 -0.35983,0.74088 -0.38099,0.74088 -0.381,0.74087 -0.40217,0.71971 -0.42332,0.71971 -0.42333,0.69853 -0.42333,0.71971 -0.46567,0.69854 -0.46566,0.69854 -0.46567,0.67737 -0.48682,0.67738 -0.508,0.67737 -0.52916,0.67737 -0.52916,0.6562 -0.52917,0.65621 -0.57149,0.6562 -0.57149,0.63503 -0.59267,0.63504 -0.59266,0.63504 -0.63499,0.61387 -0.635,0.61387 -0.88899,1.16423 -0.82549,1.05839 -0.78316,1.01606 -0.71966,0.95256 -0.3175,0.46568 -0.3175,0.44453 -0.29633,0.44453 -0.27516,0.44453 -0.254,0.44452 -0.21166,0.44453 -0.21167,0.44452 -0.1905,0.44453 -0.14816,0.44452 -0.127,0.46569 -0.10584,0.46569 -0.0635,0.4657 -0.0423,0.48686 -0.0211,0.50803 0.0211,0.52919 0.0635,0.5292 0.0847,0.55037 0.127,0.5927 0.14816,0.5927 0.19051,0.63503 0.23282,0.65621 0.254,0.67737 0.3175,0.71971 0.33867,0.74087 0.82549,0.86788 0.82549,0.86789 0.80433,0.88905 0.82549,0.88905 0.80433,0.88905 0.80432,0.93138 0.78316,0.93139 0.80433,0.93139 0.76199,0.97372 0.78316,0.99489 0.762,1.01606 0.74082,1.01606 0.74083,1.05839 0.71966,1.10072 0.69849,1.10074 0.6985,1.16423 0.0423,0.67737 -0.0211,0.6562 -0.0212,0.31752 -0.0211,0.29635 -0.0423,0.29635 -0.0423,0.27518 -0.127,0.55037 -0.16933,0.50803 -0.1905,0.50803 -0.23283,0.48686 -0.27517,0.46569 -0.29632,0.46569 -0.3175,0.48687 -0.35983,0.46569 -0.78316,0.99489 -0.84666,1.07956 -0.635,0.99489 -0.46566,0.76204 -0.40216,0.61387 -0.33867,0.50803 -0.33866,0.48686 -0.35983,0.50803 -0.4445,0.5927 -0.55033,0.74088 -1.05832,0.5927 -1.01599,0.57153 -1.01599,0.5927 -1.016,0.57153 -0.97365,0.57154 -0.97366,0.5927 -0.95249,0.5927 -0.95249,0.5927 -0.93133,0.61387 -0.93133,0.63503 -0.91015,0.63503 -0.91016,0.67738 -0.889,0.67737 -0.88899,0.71971 -0.88899,0.74087 -0.86783,0.78321 -0.50799,0.84672 -0.42333,0.76204 -0.381,0.67737 -0.31749,0.61387 -0.25401,0.55037 -0.21166,0.52919 -0.0635,0.25402 -0.0847,0.25401 -0.0423,0.25401 -0.0423,0.23285 -0.0211,0.25402 0,0.25401 0,0.25402 0.0211,0.27518 0.0423,0.27518 0.0423,0.27518 0.0423,0.29635 0.0847,0.31752 0.16934,0.67737 0.23282,0.74088 0.27517,0.84671 0.3175,0.95255 0,0.4657 -0.0212,0.42336 -0.0423,0.38102 -0.0635,0.33869 -0.0847,0.31752 -0.0847,0.25401 -0.10583,0.25401 -0.127,0.19051 -0.14816,0.19052 -0.14817,0.14817 -0.14817,0.10584 -0.19049,0.10584 -0.1905,0.0635 -0.1905,0.0423 -0.21167,0.0211 -0.21166,0 -0.23283,-0.0211 -0.23284,-0.0423 -0.25399,-0.0635 -0.254,-0.0635 -0.52916,-0.19052 -0.55033,-0.23285 -1.14299,-0.57153 -1.20649,-0.63503 -0.0423,0.91021 -0.0423,0.91022 -0.0635,0.91022 -0.0635,0.91022 -0.0635,0.46569 -0.0635,0.4657 -0.0847,0.48686 -0.0847,0.48686 -0.10583,0.48686 -0.127,0.50803 -0.14816,0.50803 -0.16934,0.50803 -0.21166,0.0423 -0.21167,0.0211 -0.21166,0 -0.23283,-0.0211 -0.23284,-0.0423 -0.23282,-0.0635 -0.23284,-0.0635 -0.23283,-0.0847 -0.46566,-0.21168 -0.46566,-0.25402 -0.46567,-0.27518 -0.46566,-0.31752 -0.88899,-0.63503 -0.80433,-0.63504 -0.33867,-0.27518 -0.33865,-0.23285 -0.27517,-0.21167 -0.254,-0.14818 -0.0847,0.27518 -0.0635,0.25402 -0.0635,0.31751 -0.0635,0.42336 -0.0635,0.5927 -0.10583,0.84672 -0.127,1.12189 -0.16934,1.50292 -0.31749,-0.0423 -0.33867,-0.0211 -0.3175,-0.0635 -0.29632,-0.0635 -0.59267,-0.127 -0.57149,-0.19052 -0.52916,-0.21167 -0.52917,-0.23285 -0.48683,-0.25401 -0.48682,-0.27519 -0.4445,-0.29635 -0.44449,-0.31751 -0.4445,-0.31752 -0.42333,-0.31752 -0.82549,-0.6562 -0.80433,-0.63504 -0.42333,0.31752 -0.40217,0.31752 -0.40216,0.33868 -0.40216,0.31752 -0.40217,0.31752 -0.40216,0.33868 -0.40216,0.31752 -0.381,0.31752 0,0.95255 0,0.76205 0.0211,0.6562 0.0211,0.6562 0.0635,0.69855 0.0635,0.84671 0.10583,1.05839 0.14817,1.37592 -0.14817,0.44452 -0.23283,0.42336 -0.27516,0.40219 -0.33867,0.38102 -0.40216,0.33868 -0.4445,0.31752 -0.46566,0.31752 -0.52916,0.27518 -0.5715,0.25402 -0.59266,0.23284 -0.61383,0.23285 -0.65616,0.19051 -0.65616,0.19051 -0.69849,0.16935 -0.6985,0.14817 -0.69849,0.14818 -0.71966,0.10583 -0.71966,0.12701 -0.71966,0.0847 -0.71966,0.10584 -1.39699,0.12701 -1.31232,0.12701 -1.22766,0.0847 -1.10066,0.0635 -0.95249,0.0423 -0.74083,0.0423 z"
       style="fill:#1a1a1a;fill-opacity:1;fill-rule:evenodd;stroke:none"
       inkscape:connector-curvature="0" />
    <path
       id="path2551"
       d="m 232.16416,382.71638 -0.40216,-0.0847 -0.40217,-0.0847 -0.42332,-0.0635 -0.508,-0.0635 -0.67733,-0.0423 -0.91016,-0.0635 -1.16416,-0.0847 0.0847,-0.48687 0.10584,-0.44452 0.10583,-0.44453 0.10583,-0.42335 0.14816,-0.4022 0.127,-0.40218 0.16933,-0.35986 0.14817,-0.38102 0.16933,-0.35985 0.1905,-0.33869 0.1905,-0.33868 0.1905,-0.33869 0.42333,-0.63504 0.44449,-0.61386 0.93133,-1.20657 0.99482,-1.22774 0.508,-0.63504 0.48683,-0.67737 0.48683,-0.69854 0.48683,-0.74087 0.10583,-0.99489 0.0847,-0.84672 0.0847,-0.74087 0.10584,-0.61387 0.0635,-0.25402 0.0635,-0.25401 0.0635,-0.21168 0.0847,-0.21168 0.0847,-0.16934 0.0847,-0.16934 0.127,-0.14818 0.10583,-0.14817 0.14817,-0.12701 0.14816,-0.10584 0.16934,-0.10584 0.19049,-0.0847 0.42333,-0.16934 0.508,-0.16935 1.31232,-0.33868 1.73565,-0.44453 1.26999,-0.74087 1.03716,-0.61387 0.91016,-0.57154 0.95249,-0.5927 1.07949,-0.69853 1.35466,-0.88905 1.73565,-1.14307 2.26481,-1.50292 1.29116,-0.38102 1.29115,-0.33868 1.31233,-0.33869 1.29115,-0.31752 1.29116,-0.31752 1.29115,-0.31752 1.29116,-0.33868 1.29115,-0.33869 1.27,-0.35985 1.29115,-0.40219 0.635,-0.23284 0.63499,-0.21169 0.61383,-0.25401 0.63499,-0.25402 0.635,-0.25401 0.63499,-0.29635 0.61383,-0.29635 0.63499,-0.29635 0.61383,-0.33869 0.61383,-0.35985 0.63499,-0.35985 0.61382,-0.40219 1.62983,-1.39708 1.54516,-1.33358 0.74082,-0.63504 0.74083,-0.61386 0.71966,-0.61387 0.74083,-0.57153 0.74082,-0.57154 0.762,-0.55036 0.78316,-0.55036 0.80433,-0.55037 0.82548,-0.52919 0.86783,-0.50804 0.91016,-0.52919 0.93133,-0.50803 0.0847,-1.03723 0.10583,-1.01605 0.12699,-1.01606 0.127,-0.99489 0.14817,-0.99489 0.16933,-0.97372 0.16933,-0.97373 0.16934,-0.97371 0.19049,-0.95256 0.1905,-0.95256 0.21167,-0.93138 0.19049,-0.93139 0.21167,-0.95255 0.1905,-0.93139 0.19049,-0.91021 0.19051,-0.93139 -1.22766,-0.97373 -1.24882,-1.03722 -1.24883,-1.07956 -1.26999,-1.14307 -0.61382,-0.57153 -0.635,-0.61387 -0.61383,-0.5927 -0.61383,-0.61387 -0.59266,-0.63503 -0.57149,-0.63504 -0.59266,-0.6562 -0.55033,-0.6562 -0.55033,-0.65621 -0.50799,-0.67737 -0.508,-0.67737 -0.48683,-0.67737 -0.46566,-0.69855 -0.4445,-0.67737 -0.42333,-0.7197 -0.381,-0.69855 -0.35982,-0.69853 -0.31751,-0.71971 -0.29632,-0.71971 -0.27517,-0.71971 -0.21166,-0.71971 -0.21167,-0.7197 -0.14816,-0.71971 -0.10583,-0.74087 1.33348,0.0211 1.37582,0.0635 1.37583,0.10585 1.39698,0.127 1.39699,0.14818 1.41816,0.19051 1.43932,0.19051 1.43932,0.21168 1.43932,0.23284 1.46049,0.25402 1.46049,0.23284 1.48165,0.23285 1.46049,0.25402 1.48165,0.23284 1.48165,0.21168 1.46049,0.21168 0.16933,0.6562 0.1905,0.63504 0.16933,0.63503 0.21167,0.65621 0.42333,1.27007 0.46566,1.27007 0.508,1.24891 0.52916,1.2489 0.57149,1.24891 0.61383,1.22774 0.65617,1.22773 0.67732,1.20657 0.69849,1.20657 0.74083,1.20656 0.76199,1.20657 0.80433,1.1854 0.80433,1.16424 0.84666,1.1854 0.71966,0.61386 0.74083,0.61387 0.76199,0.65621 0.78316,0.6562 0.78316,0.71971 0.78316,0.76204 0.40216,0.38103 0.381,0.42335 0.40216,0.42336 0.381,0.44452 0.254,1.67227 0.254,1.7146 0.10583,0.88905 0.10583,0.88905 0.0847,0.88905 0.0847,0.91022 0.0423,0.91021 0.0211,0.91022 -0.0211,0.91022 -0.0212,0.93138 -0.0847,0.91022 -0.10584,0.91022 -0.0635,0.44453 -0.0847,0.44452 -0.10583,0.4657 -0.10583,0.44452 -0.381,0.42336 -0.42333,0.40219 -0.44449,0.35985 -0.46566,0.35985 -0.48683,0.33869 -0.48683,0.29635 -0.52916,0.29635 -0.52916,0.27518 -0.55033,0.25402 -0.5715,0.23284 -0.5715,0.23285 -0.59266,0.21168 -0.59266,0.19051 -0.61383,0.16935 -0.61382,0.16934 -0.61383,0.16934 -1.24883,0.29635 -1.24882,0.25402 -1.24882,0.23284 -1.22766,0.21168 -1.20649,0.21168 -1.16416,0.21168 -1.12182,0.21168 -1.07949,0.23284 -1.07949,0.5292 -1.07949,0.5292 -1.05832,0.52919 -1.05833,0.5292 -1.03715,0.52919 -1.03716,0.5292 -1.01599,0.5292 -1.03716,0.5292 -1.01599,0.55036 -1.016,0.55036 -1.01599,0.55037 -1.01599,0.55037 -1.01599,0.57153 -1.01599,0.5927 -1.01599,0.5927 -1.016,0.61387 -0.14816,1.03722 -0.16933,1.0584 -0.14817,1.05839 -0.14816,1.05839 -0.127,1.0584 -0.14817,1.07955 -0.14816,1.0584 -0.127,1.05839 -0.254,0.10584 -0.27516,0.0847 -0.254,0.0423 -0.27517,0.0211 -0.27516,0 -0.27517,-0.0211 -0.27516,-0.0635 -0.27517,-0.0635 -0.27516,-0.0847 -0.29633,-0.10584 -0.27517,-0.127 -0.27516,-0.12701 -0.5715,-0.31752 -0.55032,-0.33868 -1.05833,-0.71971 -0.95249,-0.69854 -0.42333,-0.31752 -0.40217,-0.27518 -0.33866,-0.19051 -0.29633,-0.14818 0,0.48686 0,0.50803 0,0.48686 0,0.48686 0,0.48686 0,0.50803 0,0.50803 0,0.50803 -0.59266,-0.10584 -0.57149,-0.0847 -0.5715,-0.0847 -0.55033,-0.10584 -0.46566,-0.19051 -0.4445,-0.12701 -0.42333,-0.10584 -0.40216,-0.0635 -0.40216,-0.0424 -0.381,-0.0211 -0.381,0.0211 -0.35983,0.0212 -0.74083,0.0847 -0.74082,0.10584 -0.40216,0.0635 -0.381,0.0423 -0.42333,0.0211 -0.42333,0 -0.99483,-0.38103 -0.78316,-0.33868 -0.33866,-0.14818 -0.29633,-0.10584 -0.29633,-0.10584 -0.27517,-0.0635 -0.254,-0.0423 -0.27516,-0.0212 -0.254,0.0423 -0.27516,0.0423 -0.29633,0.10584 -0.3175,0.12701 -0.35983,0.1905 -0.381,0.21169 0.35984,1.01605 0.33866,1.03723 0.35983,1.03722 0.33866,1.03723 0.35983,1.03722 0.35983,1.03723 0.35984,1.05839 0.38099,1.03723 -0.71966,0.23285 -0.69849,0.23284 -0.71967,0.21168 -0.69849,0.21168 -0.71966,0.19051 -0.71966,0.16934 -0.69849,0.16935 -0.71967,0.14817 -1.43931,0.27518 -1.41816,0.25402 -1.43932,0.21168 -1.41816,0.16934 -1.41815,0.14818 -1.41816,0.127 -1.41815,0.10584 -1.41816,0.10584 -1.39698,0.0847 -1.41816,0.0847 -1.37582,0.0635 -1.39699,0.0847 z"
       style="fill:#1a1a1a;fill-opacity:1;fill-rule:evenodd;stroke:none"
       inkscape:connector-curvature="0" />
    <path
       id="path2553"
       d="m 266.34803,221.52306 -0.10583,0.0847 z"
       style="fill:#ffffff;fill-opacity:1;fill-rule:evenodd;stroke:none"
       inkscape:connector-curvature="0" />
    <path
       id="path2555"
       d="m 259.04559,199.16979 -0.16933,-0.12701 -0.12699,-0.14817 -0.10584,-0.14818 -0.0635,-0.14817 -0.0423,-0.14818 -0.0212,-0.14817 0,-0.14818 0.0847,-0.50803 0.10583,-0.35985 0.40217,-1.07956 0.42333,-1.0584 0.42333,-1.07956 0.42333,-1.05839 0.40217,-1.07956 0.42333,-1.0584 0.42333,-1.07956 0.42332,-1.05839 0.508,-2.05328 0.46566,-2.03212 0.21167,-1.01606 0.21166,-1.01606 0.1905,-1.01605 0.1905,-1.01606 0.16933,-0.99489 0.14817,-1.01606 0.14817,-0.99489 0.12699,-1.01605 0.10583,-0.9949 0.10584,-0.99489 0.0847,-0.99488 0.0635,-1.01607 0.0423,-0.99488 0.0211,-0.99489 0.0212,-0.9949 0,-0.99488 -0.0212,-0.99489 -0.0423,-0.9949 -0.0635,-0.99488 -0.0847,-0.99489 -0.0847,-0.9949 -0.127,-1.01605 -0.14817,-0.99489 -0.14816,-0.99489 -0.1905,-0.99489 -0.19049,-0.99489 -0.23284,-1.01606 -0.254,-0.99489 -0.42333,-1.10073 -0.40216,-1.07956 -0.42333,-1.10073 -0.42333,-1.07956 -0.42333,-1.07956 -0.40216,-1.07956 -0.42333,-1.07956 -0.42333,-1.07956 -0.86783,-1.41825 -0.88899,-1.39708 -0.86783,-1.31241 -0.86783,-1.29124 -0.88899,-1.22774 -0.88899,-1.20656 -0.91016,-1.16424 -0.93133,-1.14306 -0.95249,-1.10073 -0.97365,-1.10073 -0.99483,-1.05839 -1.05832,-1.07956 -1.07949,-1.03723 -1.10066,-1.05839 -1.18533,-1.03723 -1.20648,-1.05839 -0.0423,-0.31752 -0.0423,-0.31752 -0.0635,-0.31752 -0.0423,-0.29635 0.14817,-0.16934 0.12699,-0.19051 0.14817,-0.16934 0.14817,-0.14818 0.50799,0.0423 0.55033,0.12701 0.55033,0.19051 0.59266,0.27518 0.57149,0.33868 0.61383,0.38103 0.61383,0.46569 0.635,0.50803 0.63499,0.55036 0.63499,0.5927 0.635,0.65621 0.63499,0.67737 0.65617,0.69854 0.63499,0.74087 0.63499,0.76205 0.635,0.78321 0.61383,0.80438 0.61383,0.80438 0.61382,0.80438 0.59266,0.82554 1.14299,1.60876 1.05833,1.58759 0.97365,1.48175 0.86783,1.39708 0.74083,1.22774 0.61383,1.05839 0.31749,0.71971 0.29634,0.7197 0.31749,0.71971 0.3175,0.71971 0.3175,0.74088 0.33866,0.7197 0.3175,0.74088 0.3175,0.74087 0.48682,1.88394 0.42333,1.86278 0.40217,1.86277 0.33866,1.82044 0.16933,0.93138 0.127,0.91022 0.14817,0.91022 0.10583,0.91021 0.10583,0.91022 0.10583,0.91022 0.0635,0.91022 0.0847,0.91022 0.0423,0.93139 0.0423,0.91022 0.0211,0.93138 0.0211,0.93139 -0.0211,0.93138 -0.0211,0.93139 -0.0211,0.93139 -0.0423,0.95255 -0.0635,0.95256 -0.0847,0.97372 -0.10583,0.97372 -0.10583,0.97372 -0.127,0.99489 -0.14817,0.99489 -0.14816,1.01606 -0.1905,1.01606 -0.254,1.01605 -0.27517,0.9949 -0.27516,0.99488 -0.29633,1.01606 -0.29633,1.01606 -0.3175,0.99489 -0.31749,1.01606 -0.33867,1.01605 -0.33866,1.01606 -0.33867,1.01606 -0.35983,1.01606 -0.38099,0.99489 -0.381,1.01605 -0.40216,1.01607 -0.40217,1.01605 -0.40216,1.01606 -0.127,0.10584 -0.127,0.10583 -0.10583,0.0847 -0.127,0.0635 -0.21166,0.0847 -0.21167,0.0635 -0.42333,0.0211 -0.40216,0.0211 z"
       style="fill:#ef652a;fill-opacity:1;fill-rule:evenodd;stroke:none"
       inkscape:connector-curvature="0" />
    <path
       id="path2557"
       d="m 177.68163,148.4304 0,-0.5927 0,-0.46569 -0.0212,-0.38102 -0.0212,-0.16934 -0.0635,-0.14818 -0.0635,-0.127 -0.10583,-0.14818 -0.14816,-0.12701 -0.16934,-0.127 -0.23283,-0.12701 -0.254,-0.12701 -0.0847,-0.27518 -0.0423,-0.23285 -0.0211,-0.21168 0,-0.19051 0.0211,-0.14817 0.0211,-0.14818 0.0635,-0.10584 0.0847,-0.10584 0.0847,-0.0635 0.10583,-0.0635 0.10583,-0.0423 0.14816,-0.0212 0.12701,0 0.16932,0 0.14817,0.0212 0.1905,0.0423 0.35983,0.10584 0.35983,0.14817 0.381,0.16934 0.38099,0.21168 0.381,0.21168 0.33866,0.21168 0.29634,0.21168 0.27516,0.21168 0,0.31752 -0.0423,0.33868 -0.0423,0.29635 -0.0847,0.29635 -0.0847,0.27518 -0.12699,0.25402 -0.12701,0.25401 -0.16933,0.21168 -0.16933,0.21168 -0.21167,0.19051 -0.23282,0.16934 -0.254,0.14818 -0.27517,0.12701 -0.29633,0.10583 -0.31749,0.0847 -0.33867,0.0635 z"
       style="fill:#ef652a;fill-opacity:1;fill-rule:evenodd;stroke:none"
       inkscape:connector-curvature="0" />
    <path
       id="path2559"
       d="m 212.09833,136.89392 -0.27516,-0.12701 -0.27517,-0.12701 -0.27516,-0.10584 0.35983,-0.27518 0.29633,-0.25401 0.29633,-0.25402 0.254,-0.23285 0.21166,-0.23284 0.19051,-0.23285 0.16932,-0.23284 0.14817,-0.25402 0.10583,-0.23285 0.10584,-0.27518 0.10583,-0.25401 0.0635,-0.29635 0.12699,-0.63504 0.10584,-0.74087 0.35983,0.23284 0.33866,0.23285 0.29633,0.23285 0.254,0.21167 0.25399,0.23285 0.21168,0.21168 0.16932,0.21168 0.14817,0.19051 0.127,0.21168 0.10582,0.19051 0.0635,0.19051 0.0423,0.19051 0.0212,0.19051 0,0.16934 -0.0423,0.16935 -0.0423,0.16934 -0.0847,0.16934 -0.10583,0.14818 -0.127,0.14817 -0.127,0.14818 -0.16933,0.127 -0.1905,0.12701 -0.21167,0.10584 -0.23282,0.10584 -0.25401,0.10584 -0.25399,0.10584 -0.29633,0.0847 -0.29633,0.0635 -0.3175,0.0847 -0.33867,0.0423 -0.35982,0.0635 -0.35983,0.0212 z"
       style="fill:#ffffff;fill-opacity:1;fill-rule:evenodd;stroke:none"
       inkscape:connector-curvature="0" />
    <path
       id="path2561"
       d="m 207.6957,135.00998 -0.3175,-0.31752 -0.27516,-0.31752 -0.23283,-0.29635 -0.21167,-0.27518 -0.16933,-0.25402 -0.127,-0.25401 -0.10583,-0.23285 -0.0847,-0.21168 -0.0423,-0.19051 -0.0212,-0.19051 0.0212,-0.19051 0.0212,-0.14817 0.0635,-0.14818 0.10583,-0.14817 0.10583,-0.12701 0.127,-0.10584 0.16933,-0.10584 0.16934,-0.0847 0.21166,-0.0847 0.21167,-0.0847 0.23282,-0.0635 0.254,-0.0635 0.27517,-0.0423 0.57149,-0.0847 0.635,-0.0423 0.65616,-0.0423 0.71966,0 0,0.19052 0,0.16934 -0.67733,0.48686 -0.52916,0.38102 -0.21167,0.19051 -0.1905,0.16934 -0.16933,0.16935 -0.127,0.19051 -0.127,0.21168 -0.10583,0.21168 -0.0847,0.25401 -0.0847,0.27518 -0.14817,0.67737 -0.14816,0.88906 z"
       style="fill:#ffffff;fill-opacity:1;fill-rule:evenodd;stroke:none"
       inkscape:connector-curvature="0" />
    <path
       id="path2563"
       d="m 239.4031,126.71217 -0.21166,-0.14817 -0.14817,-0.16935 -0.14817,-0.16934 -0.10583,-0.14817 -0.0635,-0.16935 -0.0635,-0.16934 -0.0211,-0.16934 0,-0.16935 0.0211,-0.16934 0.0423,-0.16934 0.0635,-0.16935 0.0635,-0.16934 0.10584,-0.16934 0.10583,-0.16934 0.10583,-0.14818 0.27517,-0.31752 0.29632,-0.31752 0.3175,-0.29635 0.3175,-0.29635 0.59266,-0.52919 0.46566,-0.42336 0.381,-0.84671 0.33866,-0.84672 0.27517,-0.82555 0.254,-0.82554 0.21166,-0.80438 0.16933,-0.80438 0.127,-0.80438 0.10583,-0.80438 0.0635,-0.80438 0.0212,-0.78321 0,-0.80438 -0.0212,-0.78321 -0.0635,-0.78321 -0.0635,-0.78321 -0.10583,-0.80438 -0.127,-0.78321 0.127,-0.27518 0.16933,-0.27519 0.27517,0 0.29633,0 0.23283,0.50803 0.23283,0.5292 0.21167,0.57153 0.1905,0.5927 0.19049,0.61387 0.16934,0.63504 0.16933,0.6562 0.12699,0.67737 0.127,0.67737 0.0847,0.69854 0.0847,0.69854 0.0423,0.69854 0.0211,0.69854 0,0.71971 -0.0423,0.69854 -0.0635,0.67737 -0.0847,0.69854 -0.12699,0.67737 -0.14817,0.65621 -0.1905,0.63503 -0.23283,0.61387 -0.254,0.5927 -0.29633,0.57153 -0.35983,0.5292 -0.38099,0.50803 -0.42333,0.48686 -0.46566,0.42336 -0.508,0.40219 -0.55033,0.33868 -0.61383,0.31752 -0.65616,0.25402 -0.69849,0.21167 z"
       style="fill:#ef652a;fill-opacity:1;fill-rule:evenodd;stroke:none"
       inkscape:connector-curvature="0" />
    <path
       id="path2565"
       d="m 228.35419,125.75962 -0.33867,-0.31752 -0.29632,-0.31752 -0.23284,-0.33869 -0.21166,-0.33868 -0.14816,-0.33869 -0.12701,-0.33868 -0.0847,-0.35986 -0.0423,-0.33868 -0.0211,-0.33869 0.0211,-0.35985 0.0423,-0.33869 0.0847,-0.33868 0.12701,-0.33869 0.12699,-0.33869 0.16933,-0.31751 0.16934,-0.31752 0.21166,-0.31752 0.23283,-0.29635 0.254,-0.29635 0.254,-0.27518 0.27516,-0.27518 0.29633,-0.25402 0.3175,-0.23285 0.3175,-0.23284 0.31749,-0.21168 0.33867,-0.19051 0.33866,-0.19051 0.33866,-0.14818 0.35984,-0.14817 0.33866,-0.12701 0.35984,-0.0847 0.50799,0 0.55032,0.0212 0.55034,0.0423 0.55033,0.0423 -0.0423,0.21168 -0.0423,0.21168 -0.0423,0.23285 -0.0635,0.21167 -1.33348,0.50803 -1.16416,0.42336 -0.52916,0.21168 -0.48683,0.21168 -0.21167,0.10584 -0.21166,0.127 -0.1905,0.12701 -0.16933,0.14818 -0.16933,0.14817 -0.127,0.14818 -0.14817,0.19051 -0.10583,0.16934 -0.0847,0.21168 -0.0847,0.21168 -0.0635,0.23284 -0.0423,0.25402 -0.0211,0.27518 0,0.29635 0.0211,0.31752 0.0423,0.33869 0.0635,0.35985 0.0847,0.38102 0.10583,0.42336 0.12699,0.44452 -0.0423,0.38103 -0.0423,0.40219 -0.0635,0.40218 -0.0424,0.42336 -0.127,0 -0.14817,0.0423 -0.10583,0.0423 -0.10583,0.0423 z"
       style="fill:#ef652a;fill-opacity:1;fill-rule:evenodd;stroke:none"
       inkscape:connector-curvature="0" />
  </g>
</svg>
